<svg width="20" height="20" viewBox="0 0 20 20" fill="none" xmlns="http://www.w3.org/2000/svg">
<path fill-rule="evenodd" clip-rule="evenodd" d="M9.9277 3.8855C6.86685 3.8855 4.38554 6.36674 4.38554 9.42751C4.38554 12.4883 6.86685 14.9695 9.9277 14.9695C11.0373 14.9695 12.0689 14.6441 12.9346 14.0838C13.12 13.9638 13.3514 13.9394 13.5578 14.018L15.1093 14.6093L14.518 13.058C14.4394 12.8517 14.4638 12.6202 14.5838 12.4348C15.1443 11.569 15.4699 10.5373 15.4699 9.42751C15.4699 6.36674 12.9885 3.8855 9.9277 3.8855ZM3 9.42751C3 5.60155 6.10164 2.5 9.9277 2.5C13.7538 2.5 16.8554 5.60155 16.8554 9.42751C16.8554 10.6845 16.52 11.8648 15.9337 12.8821L16.9546 15.5605C17.0518 15.8156 16.9901 16.104 16.7971 16.2971C16.604 16.4901 16.3156 16.5518 16.0605 16.4546L13.3819 15.4337C12.3647 16.0198 11.1845 16.355 9.9277 16.355C6.10164 16.355 3 13.2535 3 9.42751Z" fill="#55576F"/>
<circle r="0.75" transform="matrix(-1 0 0 1 12.582 9.08594)" fill="#55576F"/>
<circle r="0.75" transform="matrix(-1 0 0 1 10.082 9.08594)" fill="#55576F"/>
<circle r="0.75" transform="matrix(-1 0 0 1 7.58203 9.08594)" fill="#55576F"/>
</svg>
