<svg width="114" height="21" viewBox="0 0 114 21" fill="none" xmlns="http://www.w3.org/2000/svg">
<rect width="114" height="21" rx="4" fill="#F2F3F7"/>
<path d="M16.6484 9.51562H18.2773V10.6055H16.6484V16.0547H15.3594V5.44922H16.6484V9.51562ZM8.77344 6.375H13.6484V10.3711H10.0859V12.4805C10.9844 12.4727 11.7773 12.4453 12.4648 12.3984C13.1523 12.3477 13.8477 12.2617 14.5508 12.1406L14.668 13.1953C13.8906 13.3359 13.1191 13.4316 12.3535 13.4824C11.5918 13.5332 10.6953 13.5586 9.66406 13.5586H8.79688V9.32812H12.3477V7.42969H8.77344V6.375ZM22.8509 9.35156H24.0814V5.63672H25.3236V15.5273H24.0814V10.4062H22.8509V13.3125H18.6908V6.59766H22.8509V9.35156ZM21.6322 12.2812V7.62891H19.9095V12.2812H21.6322ZM26.2494 5.44922H27.5033V16.043H26.2494V5.44922ZM37.1863 16.0547H35.8738V5.44922H37.1863V16.0547ZM29.03 6.41016H34.1394V7.47656H30.3425V12.3984C31.3894 12.3906 32.2468 12.3672 32.9148 12.3281C33.5866 12.2852 34.2566 12.2031 34.9245 12.082L35.0534 13.1602C34.3269 13.293 33.5886 13.3828 32.8386 13.4297C32.0886 13.4766 31.1198 13.5 29.9323 13.5H29.03V6.41016ZM42.8614 7.21875H40.0841V8.30859H42.463V9.30469H40.0841V10.4766C40.7442 10.4727 41.3145 10.4531 41.795 10.418C42.2755 10.3828 42.7638 10.3203 43.2598 10.2305L43.4005 11.2734C42.8575 11.3672 42.3223 11.4297 41.795 11.4609C41.2677 11.4922 40.6173 11.5078 39.8438 11.5078H39.5333H38.8302V6.17578H42.8614V7.21875ZM40.1544 12.4805H47.4434V16.043H46.1427V13.5234H40.1544V12.4805ZM42.92 8.17969H44.1153V5.67188H45.3575V11.9648H44.1153V9.23438H42.92V8.17969ZM46.2013 5.46094H47.4434V12.0352H46.2013V5.46094ZM59.1805 9.48047H60.8094V10.582H59.1805V16.043H57.8797V5.44922H59.1805V9.48047ZM51.2586 6.31641H52.5477V8.96484H55.0438V6.31641H56.3445V13.5586H51.2586V6.31641ZM55.0438 12.4922V9.98438H52.5477V12.4922H55.0438ZM70.5744 14.8125H60.8947V13.7344H65.0666V12.0117H62.0431V8.54297H68.1369V7.23047H62.0197V6.17578H69.4259V9.57422H63.3439V10.9453H69.672V12.0117H66.3556V13.7344H70.5744V14.8125ZM79.2027 9.58594H80.773V10.6758H79.2027V16.0195H77.9019V5.44922H79.2027V9.58594ZM70.8472 13.125C72.1402 12.4805 73.1362 11.7051 73.8355 10.7988C74.5347 9.88867 74.9487 8.83203 75.0777 7.62891H71.4214V6.55078H76.4019C76.3941 10.0273 74.7886 12.5547 71.5855 14.1328L70.8472 13.125ZM89.7645 16.043H88.452V5.44922H89.7645V16.043ZM80.9872 13.125C82.3544 12.4766 83.3798 11.7012 84.0634 10.7988C84.7509 9.89648 85.1552 8.83203 85.2763 7.60547H81.5263V6.57422H86.6005C86.6005 8.25781 86.2196 9.73438 85.4579 11.0039C84.6962 12.2734 83.4325 13.3281 81.6669 14.168L80.9872 13.125Z" fill="#7E818D"/>
<path fill-rule="evenodd" clip-rule="evenodd" d="M103.244 7.31389C103.309 7.38051 103.357 7.45681 103.389 7.53793C103.417 7.60823 103.434 7.68424 103.437 7.76372C103.437 7.77441 103.438 7.7851 103.437 7.79578C103.437 7.8004 103.437 7.80501 103.437 7.80962C103.435 7.89692 103.417 7.98019 103.385 8.05648C103.35 8.14043 103.298 8.21878 103.228 8.28603C102.881 8.62205 102.484 9.01076 102.062 9.42769L102.062 11.042C102.062 11.4217 102.37 11.7295 102.75 11.7295C103.13 11.7295 103.437 11.4217 103.437 11.042L103.437 7.79578V7.79199C103.437 7.4123 103.13 7.10449 102.75 7.10449H102.75C102.844 7.10449 102.934 7.12355 103.016 7.15803C103.1 7.19295 103.177 7.24494 103.244 7.31389ZM96.25 14.292L95.7599 13.8099L95.76 13.8097L95.7606 13.8091L95.7629 13.8068L95.7722 13.7974L95.8084 13.7606L95.9477 13.6191C96.0687 13.4962 96.2441 13.3183 96.4615 13.0981C96.8963 12.6576 97.4995 12.0477 98.1727 11.37C99.0883 10.4482 100.136 9.39893 101.066 8.47949L99.5 8.47949C99.1203 8.47949 98.8125 8.17169 98.8125 7.79199C98.8125 7.4123 99.1203 7.10449 99.5 7.10449H102.749H102.75M95.7598 13.81L96.25 14.292L96.7402 14.774C96.474 15.0448 96.0387 15.0484 95.768 14.7822C95.4972 14.516 95.4936 14.0807 95.7598 13.81Z" fill="#7E818D"/>
</svg>
