<svg width="99" height="12" viewBox="0 0 99 12" fill="none" xmlns="http://www.w3.org/2000/svg">
<path d="M0.785156 0.515625V9H2.26172V3.14062H2.33203L4.6875 8.97656H5.77734L8.13281 3.16406H8.21484V9H9.67969V0.515625H7.80469L5.28516 6.67969H5.17969L2.66016 0.515625H0.785156ZM14.6752 4.85156H10.8548V6.08203H14.6752V4.85156ZM19.3894 4.45312H20.8073C20.696 3.29883 19.7585 2.55469 18.2409 2.55469C16.6882 2.55469 15.6687 3.32227 15.6745 4.5C15.6687 5.4082 16.2839 6.0293 17.4675 6.26953L18.487 6.49219C19.1198 6.62695 19.407 6.86133 19.4128 7.23047C19.407 7.70508 18.9382 7.99805 18.2175 7.99219C17.5202 7.99805 17.0984 7.72852 17.0105 7.18359H15.487C15.6452 8.40234 16.6003 9.12891 18.2175 9.12891C19.8816 9.12891 20.9304 8.29688 20.9362 7.10156C20.9304 6.1875 20.3445 5.63086 19.1433 5.36719L18.0652 5.14453C17.4206 4.99219 17.157 4.74609 17.1628 4.41797C17.157 3.98438 17.6257 3.66211 18.2644 3.66797C18.8972 3.66211 19.2956 3.97266 19.3894 4.45312ZM23.213 5.27344C23.213 4.34766 23.7872 3.81445 24.5958 3.82031C25.3809 3.81445 25.8438 4.3125 25.8497 5.17969V9H27.338V4.94531C27.338 3.41016 26.4649 2.55469 25.1466 2.55469C24.168 2.55469 23.547 2.99414 23.2598 3.71484H23.1778V0.515625H21.713V9H23.213V5.27344ZM28.103 7.20703C28.103 8.4668 29.0229 9.12891 30.2358 9.12891C31.2377 9.12891 31.8295 8.66016 32.1108 8.12109H32.1577V9H33.5873V4.74609C33.5873 3.05273 32.1928 2.55469 30.9858 2.55469C29.392 2.55469 28.4194 3.36914 28.3139 4.45312H29.7553C29.8725 3.99609 30.2827 3.69141 30.9506 3.69141C31.6948 3.69141 32.0991 4.05469 32.0991 4.6875L32.1049 5.19727C31.8237 5.20898 30.9155 5.25 30.4702 5.28516C29.2924 5.36133 28.103 5.77734 28.103 7.20703ZM29.5444 7.19531C29.5444 6.63867 29.9955 6.33984 30.7045 6.28125C31.0034 6.25781 31.8354 6.20508 32.1049 6.19336L32.1108 6.71484C32.1108 7.42969 31.5307 8.02734 30.6225 8.02734C29.9955 8.02734 29.5444 7.74609 29.5444 7.19531ZM34.6336 11.3906H36.1336V7.99219H36.1922C36.4266 8.46094 36.9246 9.11133 38.0203 9.11719C39.5203 9.11133 40.6395 7.91602 40.6453 5.82422C40.6395 3.70312 39.4852 2.55469 38.0203 2.55469C36.8895 2.55469 36.4207 3.22852 36.1922 3.67969H36.0984V2.63672H34.6336V11.3906ZM36.0984 5.8125C36.1043 4.57617 36.6316 3.7793 37.6102 3.77344C38.6121 3.7793 39.1219 4.62891 39.1219 5.8125C39.1219 7.01367 38.6004 7.88672 37.6102 7.88672C36.6434 7.88672 36.1043 7.05469 36.0984 5.8125ZM44.2814 9.12891C45.758 9.12891 46.7775 8.40234 47.047 7.30078H45.5822C45.3888 7.68164 44.9494 7.96289 44.2931 7.95703C43.3263 7.96289 42.6877 7.31836 42.6642 6.23438H47.1056V5.76562C47.1056 3.5332 45.758 2.55469 44.1994 2.55469C42.383 2.55469 41.1877 3.89062 41.1877 5.85938C41.1877 7.85156 42.3654 9.12891 44.2814 9.12891ZM42.6701 5.21484C42.7228 4.40625 43.3263 3.71484 44.2228 3.71484C45.0841 3.71484 45.6701 4.34766 45.6759 5.21484H42.6701ZM50.273 9.11719C51.3745 9.11133 51.8609 8.46094 52.1011 7.99219H52.1831V9H53.648V0.515625H52.1597V3.67969H52.1011C51.8726 3.22852 51.4038 2.55469 50.2847 2.55469C48.8081 2.55469 47.648 3.70312 47.648 5.82422C47.648 7.91602 48.7788 9.11133 50.273 9.11719ZM49.1714 5.8125C49.1714 4.62891 49.687 3.7793 50.6831 3.77344C51.6558 3.7793 52.1948 4.57617 52.1948 5.8125C52.1948 7.05469 51.6499 7.88672 50.6831 7.88672C49.6987 7.88672 49.1714 7.01367 49.1714 5.8125ZM57.5569 5.76562C57.5569 7.97461 58.2131 9.80859 59.3147 11.3906H60.7209C59.9123 10.2188 59.1037 7.86328 59.1037 5.76562C59.1037 3.66797 59.9123 1.31836 60.7209 0.152344H59.3147C58.2131 1.72266 57.5569 3.5625 57.5569 5.76562ZM64.6383 2.63672H63.3258V2.16797C63.3199 1.58789 63.6246 1.35352 64.2281 1.34766C64.3395 1.35352 64.5211 1.35938 64.7672 1.39453V0.210938C64.4859 0.152344 64.1637 0.117188 63.818 0.117188C62.5934 0.117188 61.8258 0.791016 61.8258 2.02734V2.63672H60.8766V3.78516H61.8258V9H63.3258V3.78516H64.6383V2.63672ZM65.3447 9H66.8447V5.25C66.8447 4.44727 67.4541 3.87305 68.2861 3.86719C68.5322 3.87305 68.8427 3.91406 68.9775 3.96094V2.57812C68.8369 2.56055 68.6025 2.54297 68.4384 2.54297C67.706 2.54297 67.0966 2.95898 66.8681 3.69141H66.7978V2.63672H65.3447V9ZM72.0745 9.12891C73.9378 9.12891 75.1273 7.81055 75.1214 5.84766C75.1273 3.86719 73.9378 2.55469 72.0745 2.55469C70.2171 2.55469 69.0277 3.86719 69.0277 5.84766C69.0277 7.81055 70.2171 9.12891 72.0745 9.12891ZM70.5394 5.83594C70.5394 4.66992 71.0491 3.73242 72.0863 3.73828C73.1058 3.73242 73.6155 4.66992 73.6097 5.83594C73.6155 7.00195 73.1058 7.93359 72.0863 7.93359C71.0491 7.93359 70.5394 7.00195 70.5394 5.83594ZM77.4216 5.27344C77.4216 4.34766 77.9782 3.81445 78.7692 3.82031C79.5485 3.81445 80.0114 4.32422 80.0114 5.17969V9H81.4997V4.94531C81.5055 3.42188 80.6384 2.55469 79.32 2.55469C78.3708 2.55469 77.7204 3.00586 77.4333 3.71484H77.3512V2.63672H75.9216V9H77.4216V5.27344ZM85.7452 2.63672H84.4912V1.11328H83.003V2.63672H82.0889V3.78516H83.003V7.33594C82.9912 8.53125 83.8584 9.08789 84.9834 9.08203C85.3643 9.08789 85.6514 9.05273 85.8272 9.02344V7.80469C85.6397 7.81641 85.3467 7.83398 85.1709 7.82812C84.7959 7.82227 84.4912 7.69922 84.4912 7.08984V3.78516H85.7452V2.63672ZM86.2406 7.20703C86.2406 8.4668 87.1605 9.12891 88.3734 9.12891C89.3754 9.12891 89.9672 8.66016 90.2484 8.12109H90.2953V9H91.725V4.74609C91.725 3.05273 90.3305 2.55469 89.1234 2.55469C87.5297 2.55469 86.557 3.36914 86.4516 4.45312H87.893C88.0102 3.99609 88.4203 3.69141 89.0883 3.69141C89.8324 3.69141 90.2367 4.05469 90.2367 4.6875L90.2426 5.19727C89.9613 5.20898 89.0531 5.25 88.6078 5.28516C87.4301 5.36133 86.2406 5.77734 86.2406 7.20703ZM87.682 7.19531C87.682 6.63867 88.1332 6.33984 88.8422 6.28125C89.141 6.25781 89.973 6.20508 90.2426 6.19336L90.2484 6.71484C90.2484 7.42969 89.6684 8.02734 88.7602 8.02734C88.1332 8.02734 87.682 7.74609 87.682 7.19531ZM94.2712 0.515625H92.7712V9H94.2712V0.515625ZM98.13 5.76562C98.13 3.5625 97.4737 1.72266 96.3722 0.152344H94.9659C95.7745 1.31836 96.5831 3.66797 96.5831 5.76562C96.5831 7.86328 95.7745 10.2188 94.9659 11.3906H96.3722C97.4737 9.80859 98.13 7.97461 98.13 5.76562Z" fill="black"/>
</svg>
