<svg width="35" height="10" viewBox="0 0 35 10" fill="none" xmlns="http://www.w3.org/2000/svg">
<path d="M1.91016 0.515625H0.234375L3.22266 9H5.09766L8.09766 0.515625H6.42188L4.20703 7.20703H4.11328L1.91016 0.515625ZM10.8197 9.12891C12.2962 9.12891 13.3158 8.40234 13.5853 7.30078H12.1205C11.9271 7.68164 11.4877 7.96289 10.8314 7.95703C9.86461 7.96289 9.22594 7.31836 9.2025 6.23438H13.6439V5.76562C13.6439 3.5332 12.2962 2.55469 10.7377 2.55469C8.92125 2.55469 7.72594 3.89062 7.72594 5.85938C7.72594 7.85156 8.90367 9.12891 10.8197 9.12891ZM9.20836 5.21484C9.26109 4.40625 9.86461 3.71484 10.7611 3.71484C11.6224 3.71484 12.2084 4.34766 12.2142 5.21484H9.20836ZM14.4441 9H15.9441V5.25C15.9441 4.44727 16.5534 3.87305 17.3855 3.86719C17.6316 3.87305 17.9421 3.91406 18.0769 3.96094V2.57812C17.9362 2.56055 17.7019 2.54297 17.5378 2.54297C16.8054 2.54297 16.196 2.95898 15.9675 3.69141H15.8972V2.63672H14.4441V9ZM22.1348 2.63672H20.8809V1.11328H19.3927V2.63672H18.4786V3.78516H19.3927V7.33594C19.3809 8.53125 20.2481 9.08789 21.3731 9.08203C21.754 9.08789 22.0411 9.05273 22.2169 9.02344V7.80469C22.0294 7.81641 21.7364 7.83398 21.5606 7.82812C21.1856 7.82227 20.8809 7.69922 20.8809 7.08984V3.78516H22.1348V2.63672ZM25.6772 9.12891C27.1537 9.12891 28.1733 8.40234 28.4428 7.30078H26.978C26.7846 7.68164 26.3452 7.96289 25.6889 7.95703C24.7221 7.96289 24.0834 7.31836 24.06 6.23438H28.5014V5.76562C28.5014 3.5332 27.1537 2.55469 25.5952 2.55469C23.7787 2.55469 22.5834 3.89062 22.5834 5.85938C22.5834 7.85156 23.7612 9.12891 25.6772 9.12891ZM24.0659 5.21484C24.1186 4.40625 24.7221 3.71484 25.6186 3.71484C26.4799 3.71484 27.0659 4.34766 27.0717 5.21484H24.0659ZM30.3914 2.63672H28.8094L30.7078 5.8125L28.7625 9H30.3563L31.6805 6.70312L33.0398 9H34.6102L32.6531 5.8125L34.575 2.63672H32.993L31.6805 4.99219L30.3914 2.63672Z" fill="black"/>
</svg>
