<svg width="119" height="29" viewBox="0 0 119 29" fill="none" xmlns="http://www.w3.org/2000/svg">
<path d="M0 4C0 1.79086 1.79086 0 4 0H115C117.209 0 119 1.79086 119 4V25C119 27.2091 117.209 29 115 29H4C1.79086 29 0 27.2091 0 25V4Z" fill="white"/>
<path fill-rule="evenodd" clip-rule="evenodd" d="M13.9277 7.8855C10.8668 7.8855 8.38554 10.3667 8.38554 13.4275C8.38554 16.4883 10.8668 18.9695 13.9277 18.9695C15.0373 18.9695 16.0689 18.6441 16.9346 18.0838C17.12 17.9638 17.3514 17.9394 17.5578 18.018L19.1093 18.6093L18.518 17.058C18.4394 16.8517 18.4638 16.6202 18.5838 16.4348C19.1443 15.569 19.4699 14.5373 19.4699 13.4275C19.4699 10.3667 16.9885 7.8855 13.9277 7.8855ZM7 13.4275C7 9.60155 10.1016 6.5 13.9277 6.5C17.7538 6.5 20.8554 9.60155 20.8554 13.4275C20.8554 14.6845 20.52 15.8648 19.9337 16.8821L20.9546 19.5605C21.0518 19.8156 20.9901 20.104 20.7971 20.2971C20.604 20.4901 20.3156 20.5518 20.0605 20.4546L17.3819 19.4337C16.3647 20.0198 15.1845 20.355 13.9277 20.355C10.1016 20.355 7 17.2535 7 13.4275Z" fill="#55576F"/>
<circle r="0.75" transform="matrix(-1 0 0 1 16.582 13.0859)" fill="#55576F"/>
<circle r="0.75" transform="matrix(-1 0 0 1 14.082 13.0859)" fill="#55576F"/>
<circle r="0.75" transform="matrix(-1 0 0 1 11.582 13.0859)" fill="#55576F"/>
<path d="M35 9.92188H27.3594V10.9648H33.6875C33.6816 12.2363 33.6816 13.7422 33.2656 15.8047L34.5781 15.9453C34.9883 13.7305 34.9883 12.2598 35 10.9414V9.92188ZM26.3516 18.1719H36.0078V17.1055H31.2031V13.4258H29.9141V17.1055H26.3516V18.1719ZM45.6613 8.96094H44.4191V11.4688H43.3058V9.16016H42.0753V15.125H43.3058V12.5352H44.4191V15.1719H45.6613V8.96094ZM36.5441 14.293L37.1652 15.2656C39.9015 14.1523 41.2257 12.3242 41.2198 9.69922H37.0245V10.7539H39.8956C39.6847 12.3008 38.6124 13.502 36.5441 14.293ZM38.3605 16.6602H44.3605V19.543H45.6613V15.6055H38.3605V16.6602ZM56.5217 14.2461H46.842V15.2891H51.1428V17.2344H52.4319V15.2891H56.5217V14.2461ZM48.0139 19.332H55.4553V18.2773H49.3147V16.2617H48.0139V19.332ZM48.0725 13.2617H55.2795V9.42969H48.0725V13.2617ZM49.3381 12.2422V10.4492H53.9905V12.2422H49.3381ZM60.5384 9.6875C58.8744 9.68164 57.6263 10.7422 57.6322 12.2422C57.6263 13.748 58.8744 14.8027 60.5384 14.8086C62.2201 14.8027 63.4447 13.748 63.4564 12.2422C63.4447 10.7422 62.2201 9.68164 60.5384 9.6875ZM57.1517 16.2734L57.3158 17.3398C59.1849 17.3398 61.7279 17.3223 64.1009 16.8711L63.9955 15.9219C61.7045 16.25 59.0619 16.2734 57.1517 16.2734ZM58.9212 12.2422C58.9154 11.3633 59.6127 10.8125 60.5384 10.8125C61.4818 10.8125 62.1732 11.3633 62.1791 12.2422C62.1732 13.127 61.4759 13.6719 60.5384 13.6719C59.6127 13.6719 58.9154 13.127 58.9212 12.2422ZM64.6283 19.5547H65.9291V8.94922H64.6283V19.5547ZM78.3805 8.94922H77.0797V19.543H78.3805V14.082H80.0094V12.9805H78.3805V8.94922ZM70.4586 17.0586H75.5445V9.81641H74.2438V12.4648H71.7477V9.81641H70.4586V17.0586ZM71.7477 15.9922V13.4844H74.2438V15.9922H71.7477ZM90.0144 17.2344H85.7956V15.5117H89.112V14.4453H82.7839V13.0742H88.8659V9.67578H81.4597V10.7305H87.5769V12.043H81.4831V15.5117H84.5066V17.2344H80.3347V18.3125H90.0144V17.2344ZM98.8827 8.94922H97.5819V19.5195H98.8827V14.1758H100.453V13.0859H98.8827V8.94922ZM90.5272 16.625L91.2655 17.6328C94.787 15.8984 96.076 13.1621 96.0819 10.0508H91.1014V11.1289H94.7577C94.4998 13.543 93.1053 15.3359 90.5272 16.625ZM109.685 8.94922H108.372V19.543H109.685V8.94922ZM100.907 16.625L101.587 17.668C105.296 15.9043 106.52 13.2266 106.52 10.0742H101.446V11.1055H105.196C104.962 13.5137 103.685 15.3066 100.907 16.625Z" fill="#55576F"/>
<path d="M4 1H115V-1H4V1ZM118 4V25H120V4H118ZM115 28H4V30H115V28ZM1 25V4H-1V25H1ZM4 28C2.34315 28 1 26.6569 1 25H-1C-1 27.7614 1.23858 30 4 30V28ZM118 25C118 26.6569 116.657 28 115 28V30C117.761 30 120 27.7614 120 25H118ZM115 1C116.657 1 118 2.34315 118 4H120C120 1.23858 117.761 -1 115 -1V1ZM4 -1C1.23858 -1 -1 1.23858 -1 4H1C1 2.34315 2.34315 1 4 1V-1Z" fill="#55576F"/>
</svg>
