<svg width="178" height="84" viewBox="0 0 178 84" fill="none" xmlns="http://www.w3.org/2000/svg">
<g filter="url(#filter0_d_702_30218)">
<path d="M12 16C12 11.5817 15.5817 8 20 8H158C162.418 8 166 11.5817 166 16V60C166 64.4183 162.418 68 158 68H20C15.5817 68 12 64.4183 12 60V16Z" fill="#55576F"/>
<path d="M69.0293 37.6953H52.6426V39.9219H59.6934V42.832H62.4668V39.9219H69.0293V37.6953ZM54.498 46.582H67.2324V44.3359H57.3105V41.3477H54.498V46.582ZM54.6543 36.4258H66.9395V29.707H54.6543V36.4258ZM57.4082 34.2578V31.875H64.1855V34.2578H57.4082ZM75.7285 30.1172C72.9062 30.1074 70.709 31.9727 70.709 34.5703C70.709 37.1777 72.9062 39.0332 75.7285 39.0234C78.5801 39.0332 80.7285 37.1777 80.748 34.5703C80.7285 31.9727 78.5801 30.1074 75.7285 30.1172ZM70.0254 41.0742L70.3379 43.3398C73.4434 43.3398 77.6426 43.3008 81.5684 42.5391L81.3535 40.5078C77.5645 41.0352 73.1797 41.084 70.0254 41.0742ZM73.502 34.5703C73.502 33.2617 74.4688 32.5391 75.7285 32.5391C77.0176 32.5391 77.9941 33.2617 78.0137 34.5703C77.9941 35.9082 77.0078 36.6113 75.7285 36.6016C74.4785 36.6113 73.502 35.9082 73.502 34.5703ZM82.3105 46.9141H85.1035V28.9453H82.3105V46.9141ZM106.764 28.9648H103.951V42.0312H106.764V28.9648ZM91.5488 37.4219L93.0137 39.6289C95.0938 38.9551 96.4805 37.5684 97.2812 35.8301C98.0625 37.4414 99.4102 38.6914 101.412 39.3359L102.838 37.1289C99.8008 36.1914 98.7168 33.916 98.7363 31.6602V29.9414H95.8066V31.6602C95.8066 33.9648 94.6641 36.416 91.5488 37.4219ZM94.6152 46.582H107.213V44.3359H97.4668V40.7422H94.6152V46.582ZM119.225 30.7227H115.768V28.8867H112.936V30.7227H109.479V32.9297H112.936C112.867 34.7949 111.686 36.709 108.814 37.5L110.123 39.6875C112.223 39.1113 113.609 37.8809 114.391 36.3184C115.211 37.6758 116.578 38.7305 118.58 39.2188L119.889 37.0703C117.018 36.3477 115.836 34.5996 115.758 32.9297H119.225V30.7227ZM111.783 43.418C111.783 45.6152 114.166 46.8945 117.975 46.875C121.832 46.8945 124.215 45.6152 124.225 43.418C124.215 41.2402 121.832 40.0293 117.975 40.0195C114.166 40.0293 111.783 41.2402 111.783 43.418ZM114.576 43.418C114.576 42.5488 115.738 42.1484 117.975 42.168C120.299 42.1484 121.412 42.5488 121.432 43.418C121.412 44.3066 120.299 44.7559 117.975 44.7656C115.738 44.7559 114.576 44.3066 114.576 43.418ZM118.697 35.8984H121.373V39.7852H124.166V28.9453H121.373V33.6523H118.697V35.8984Z" fill="white"/>
</g>
<defs>
<filter id="filter0_d_702_30218" x="0" y="0" width="178" height="84" filterUnits="userSpaceOnUse" color-interpolation-filters="sRGB">
<feFlood flood-opacity="0" result="BackgroundImageFix"/>
<feColorMatrix in="SourceAlpha" type="matrix" values="0 0 0 0 0 0 0 0 0 0 0 0 0 0 0 0 0 0 127 0" result="hardAlpha"/>
<feOffset dy="4"/>
<feGaussianBlur stdDeviation="6"/>
<feComposite in2="hardAlpha" operator="out"/>
<feColorMatrix type="matrix" values="0 0 0 0 0.333333 0 0 0 0 0.341176 0 0 0 0 0.435294 0 0 0 0.12 0"/>
<feBlend mode="normal" in2="BackgroundImageFix" result="effect1_dropShadow_702_30218"/>
<feBlend mode="normal" in="SourceGraphic" in2="effect1_dropShadow_702_30218" result="shape"/>
</filter>
</defs>
</svg>
