<svg width="154" height="60" viewBox="0 0 154 60" fill="none" xmlns="http://www.w3.org/2000/svg">
<path d="M0 8C0 3.58172 3.58172 0 8 0H146C150.418 0 154 3.58172 154 8V52C154 56.4183 150.418 60 146 60H8C3.58172 60 0 56.4183 0 52V8Z" fill="#DFE1E8"/>
<path d="M57.0293 29.6953H40.6426V31.9219H47.6934V34.832H50.4668V31.9219H57.0293V29.6953ZM42.498 38.582H55.2324V36.3359H45.3105V33.3477H42.498V38.582ZM42.6543 28.4258H54.9395V21.707H42.6543V28.4258ZM45.4082 26.2578V23.875H52.1855V26.2578H45.4082ZM63.7285 22.1172C60.9062 22.1074 58.709 23.9727 58.709 26.5703C58.709 29.1777 60.9062 31.0332 63.7285 31.0234C66.5801 31.0332 68.7285 29.1777 68.748 26.5703C68.7285 23.9727 66.5801 22.1074 63.7285 22.1172ZM58.0254 33.0742L58.3379 35.3398C61.4434 35.3398 65.6426 35.3008 69.5684 34.5391L69.3535 32.5078C65.5645 33.0352 61.1797 33.084 58.0254 33.0742ZM61.502 26.5703C61.502 25.2617 62.4688 24.5391 63.7285 24.5391C65.0176 24.5391 65.9941 25.2617 66.0137 26.5703C65.9941 27.9082 65.0078 28.6113 63.7285 28.6016C62.4785 28.6113 61.502 27.9082 61.502 26.5703ZM70.3105 38.9141H73.1035V20.9453H70.3105V38.9141ZM94.7637 20.9648H91.9512V34.0312H94.7637V20.9648ZM79.5488 29.4219L81.0137 31.6289C83.0938 30.9551 84.4805 29.5684 85.2812 27.8301C86.0625 29.4414 87.4102 30.6914 89.4121 31.3359L90.8379 29.1289C87.8008 28.1914 86.7168 25.916 86.7363 23.6602V21.9414H83.8066V23.6602C83.8066 25.9648 82.6641 28.416 79.5488 29.4219ZM82.6152 38.582H95.2129V36.3359H85.4668V32.7422H82.6152V38.582ZM107.225 22.7227H103.768V20.8867H100.936V22.7227H97.4785V24.9297H100.936C100.867 26.7949 99.6855 28.709 96.8145 29.5L98.123 31.6875C100.223 31.1113 101.609 29.8809 102.391 28.3184C103.211 29.6758 104.578 30.7305 106.58 31.2188L107.889 29.0703C105.018 28.3477 103.836 26.5996 103.758 24.9297H107.225V22.7227ZM99.7832 35.418C99.7832 37.6152 102.166 38.8945 105.975 38.875C109.832 38.8945 112.215 37.6152 112.225 35.418C112.215 33.2402 109.832 32.0293 105.975 32.0195C102.166 32.0293 99.7832 33.2402 99.7832 35.418ZM102.576 35.418C102.576 34.5488 103.738 34.1484 105.975 34.168C108.299 34.1484 109.412 34.5488 109.432 35.418C109.412 36.3066 108.299 36.7559 105.975 36.7656C103.738 36.7559 102.576 36.3066 102.576 35.418ZM106.697 27.8984H109.373V31.7852H112.166V20.9453H109.373V25.6523H106.697V27.8984Z" fill="white"/>
</svg>
