<svg width="99" height="29" viewBox="0 0 99 29" fill="none" xmlns="http://www.w3.org/2000/svg">
<path d="M0 4C0 1.79086 1.79086 0 4 0H95C97.2091 0 99 1.79086 99 4V25C99 27.2091 97.2091 29 95 29H4C1.79086 29 0 27.2091 0 25V4Z" fill="#55576F"/>
<path fill-rule="evenodd" clip-rule="evenodd" d="M8.71217 8.74156L8.29771 12.067C9.05313 12.9014 10.4114 12.8542 11.1017 11.9569C11.3557 11.6265 11.8462 11.581 12.1596 11.8589L13.0001 12.6038C13.5668 13.1061 14.4323 13.1061 14.999 12.6038L15.8397 11.8589C16.1529 11.5811 16.6434 11.6265 16.8974 11.9569C17.5877 12.8542 18.946 12.9015 19.7014 12.067L19.2868 8.74156H8.71217ZM7.49798 8.19144C7.54716 7.7968 7.89083 7.5 8.29859 7.5H19.7008C20.1085 7.5 20.4522 7.79681 20.5014 8.19144L20.9947 12.1488C21.0187 12.3414 20.96 12.5351 20.8327 12.6841L20.7146 12.8224C19.5735 14.1575 17.5554 14.2495 16.2888 13.1389L15.856 13.5226C14.8035 14.4552 13.1963 14.4552 12.144 13.5226L11.7112 13.1389C10.4445 14.2495 8.4264 14.1575 7.28542 12.8224L7.16731 12.6841C7.03982 12.5351 6.98126 12.3414 7.00528 12.1488L7.49862 8.19144" fill="white"/>
<path fill-rule="evenodd" clip-rule="evenodd" d="M7.84595 18.7135V13.085H9.11941V18.2583H11.6663V15.7338C11.6663 15.2995 12.0275 14.9474 12.4729 14.9474H15.5292C15.9746 14.9474 16.3358 15.2995 16.3358 15.7338V18.2583H18.8827V13.085H20.1562V18.7135C20.1562 19.1477 19.795 19.4998 19.3496 19.4998H15.8687C15.4233 19.4998 15.0623 19.1477 15.0623 18.7135V16.1889H12.9398V18.7135C12.9398 19.1477 12.5788 19.4998 12.1334 19.4998H8.65252C8.2071 19.4998 7.84595 19.1477 7.84595 18.7135Z" fill="white"/>
<path d="M35.1523 9.47656H27.2422V10.5312H28.6953V13.0391H27.2891V14.0938H35.0703V13.0391H33.6758V10.5312H35.1523V9.47656ZM26.3398 16.1562H28.6953V19.543H30.0195V16.1562H32.4102V19.543H33.7109V16.1562H36.0195V15.0898H26.3398V16.1562ZM29.9961 13.0391V10.5312H32.3867V13.0391H29.9961ZM44.8995 8.94922H43.6105V19.5547H44.8995V14.1055H46.5284V13.0156H44.8995V8.94922ZM37.0245 10.9297H40.5988V12.8281H37.048V17.0586H37.9152C39.8429 17.0586 41.2843 16.9883 42.9191 16.6953L42.8019 15.6406C41.3253 15.8984 40.0187 15.9688 38.337 15.9805V13.8711H41.8995V9.875H37.0245V10.9297ZM50.1233 10.25V9.37109H48.8577V10.2148C48.8577 11.5156 48.2014 12.8809 46.76 13.5312L47.4983 14.5156C48.4709 14.0586 49.133 13.2324 49.508 12.2656C49.8538 13.1211 50.4631 13.8184 51.4006 14.1992L52.0803 13.2266C50.7385 12.6875 50.1233 11.4863 50.1233 10.25ZM48.7405 15.9453H54.6233V16.6602H48.7522V19.4492H56.2873V18.418H50.053V17.6328H55.9123V14.9258H48.7405V15.9453ZM51.1663 11.7734H52.5491V14.4688H53.7913V9.13672H52.5491V10.7305H51.1663V11.7734ZM54.6702 14.5156H55.9123V8.96094H54.6702V14.5156ZM63.6059 14.9727H62.3169V17.1992H59.8325V18.2539H69.5122V17.1992H67.0161V14.9727H65.7153V17.1992H63.6059V14.9727ZM60.102 13.7539L60.6294 14.832C62.4282 14.5156 63.9048 13.5137 64.6138 12.1719C65.3169 13.5137 66.7934 14.5039 68.6098 14.832L69.1372 13.7539C66.9106 13.4141 65.3052 11.8965 65.3052 10.3672V9.58203H63.9223V10.3672C63.9165 11.8848 62.3169 13.3965 60.102 13.7539ZM76.2945 9.79297H70.5406V10.8477H71.4664V13.748C71.0387 13.7539 70.6344 13.7539 70.2594 13.7539L70.4 14.8203C72.1754 14.8145 74.6715 14.7734 76.8219 14.4102L76.7398 13.4375C76.2887 13.4961 75.8199 13.543 75.3453 13.584V10.8477H76.2945V9.79297ZM71.7242 17.5508C71.7184 18.8047 73.0895 19.5312 75.3453 19.5312C77.5895 19.5312 78.9664 18.8047 78.9664 17.5508C78.9664 16.2969 77.5895 15.5879 75.3453 15.5938C73.0895 15.5879 71.7184 16.2969 71.7242 17.5508ZM72.7203 13.7188V10.8477H74.1031V13.666C73.6344 13.6895 73.1715 13.707 72.7203 13.7188ZM73.0133 17.5508C73.0133 16.9238 73.8453 16.5898 75.3453 16.5898C76.8336 16.5898 77.6598 16.9238 77.6656 17.5508C77.6598 18.1836 76.8336 18.5234 75.3453 18.5234C73.8453 18.5234 73.0133 18.1836 73.0133 17.5508ZM77.5953 15.3828H78.9078V8.96094H77.5953V15.3828ZM89.9909 13.3789H85.7839V12.582H88.7487V9.27734H81.5534V12.582H84.4948V13.3789H80.3347V14.4336H89.9909V13.3789ZM81.4714 16.0625H87.5066V16.7422H81.4831V19.4492H89.0769V18.4531H82.7605V17.6797H88.7839V15.0781H81.4714V16.0625ZM82.8308 11.5625V10.2969H87.448V11.5625H82.8308Z" fill="white"/>
</svg>
