<svg width="187" height="17" viewBox="0 0 187 17" fill="none" xmlns="http://www.w3.org/2000/svg">
<path d="M27.0234 3.53125H26.1094V9.12109H27.0234V3.53125ZM18.668 6.4375C18.6621 7.85547 19.8164 8.83398 21.3984 8.82812C22.9805 8.83398 24.123 7.85547 24.1289 6.4375C24.123 5.01367 22.9805 4.03516 21.3984 4.04688C19.8164 4.03516 18.6621 5.01367 18.668 6.4375ZM19.5703 6.4375C19.5586 5.48242 20.3262 4.81445 21.3984 4.82031C22.459 4.81445 23.2266 5.48242 23.2266 6.4375C23.2266 7.38672 22.459 8.06055 21.3984 8.06641C20.3262 8.06055 19.5586 7.38672 19.5703 6.4375ZM20.2734 13.8086H27.0234V9.64844H26.1094V10.9141H21.1875V9.64844H20.2734V13.8086ZM21.1875 13.0586V11.6523H26.1094V13.0586H21.1875ZM33.6183 4.17578H29.0948V4.91406H32.7042V6.39062H29.1183V9.46094H29.8566C31.9659 9.46094 33.0265 9.42578 34.3214 9.21484L34.2277 8.45312C33.003 8.67578 31.9894 8.7168 30.0323 8.71094V7.09375H33.6183V4.17578ZM30.2902 11.2539H36.3839V13.9727H37.3097V10.5039H30.2902V11.2539ZM34.3097 8.00781H36.3839V9.94141H37.3097V3.54297H36.3839V5.08984H34.3097V5.83984H36.3839V7.24609H34.3097V8.00781ZM46.9866 3.53125H46.0725V13.9492H46.9866V8.59375H48.7327V7.83203H46.9866V3.53125ZM38.8655 5.96875H45.0647V5.20703H42.4631V3.66016H41.5491V5.20703H38.8655V5.96875ZM39.4631 9.22656C39.4573 10.6387 40.5354 11.6172 42.0178 11.6172C43.4885 11.6172 44.5608 10.6387 44.5725 9.22656C44.5608 7.82031 43.4885 6.83594 42.0178 6.83594C40.5354 6.83594 39.4573 7.82031 39.4631 9.22656ZM40.342 9.22656C40.3362 8.2832 41.0452 7.60352 42.0178 7.60938C42.9788 7.60352 43.6819 8.2832 43.6936 9.22656C43.6819 10.1758 42.9788 10.8438 42.0178 10.832C41.0452 10.8438 40.3362 10.1758 40.342 9.22656ZM52.9017 6.73047V5.37109H55.3861V4.60938H49.515V5.37109H51.9759V6.73047C51.9701 8.53516 50.6693 10.5039 49.1752 11.2188L49.7259 11.9453C50.9154 11.3477 51.9701 10.0234 52.4564 8.49414C52.9427 9.93555 53.9916 11.1367 55.2103 11.6875L55.7259 10.9609C54.1908 10.2988 52.9076 8.5 52.9017 6.73047ZM56.8392 13.9492H57.765V3.53125H56.8392V13.9492ZM65.2242 4.12891C63.6715 4.13477 62.5113 5.125 62.5172 6.53125C62.5113 7.95508 63.6715 8.93945 65.2242 8.94531C66.7828 8.93945 67.9313 7.95508 67.9313 6.53125C67.9313 5.125 66.7828 4.13477 65.2242 4.12891ZM63.4195 6.53125C63.4137 5.59375 64.1988 4.90234 65.2242 4.90234C66.2555 4.90234 67.0348 5.59375 67.0289 6.53125C67.0348 7.48633 66.2555 8.18359 65.2242 8.18359C64.1988 8.18359 63.4137 7.48633 63.4195 6.53125ZM63.4313 13.668H63.9234C64.6031 13.6738 65.5934 13.627 66.607 13.293L66.4664 12.5547C65.7281 12.8008 64.9254 12.8887 64.3219 12.9121V9.87109H63.4313V13.668ZM66.2438 10.6328H71.5055V9.91797H69.3375V8.99219H68.4352V9.91797H66.2438V10.6328ZM66.9352 12.4609C66.9293 13.3633 67.7203 13.9258 68.8688 13.9258C70.0113 13.9258 70.8141 13.3633 70.8258 12.4609C70.8141 11.5586 70.0113 10.9844 68.8688 10.9844C67.7203 10.9844 66.9293 11.5586 66.9352 12.4609ZM67.7555 12.4609C67.7555 11.9805 68.2184 11.6582 68.8688 11.6523C69.5191 11.6582 69.982 11.9805 69.982 12.4609C69.982 12.9531 69.5191 13.2637 68.8688 13.2695C68.2184 13.2637 67.7555 12.9531 67.7555 12.4609ZM69.5484 8.74609H70.4625V6.64844H72.0328V5.88672H70.4625V3.53125H69.5484V8.74609ZM82.0612 9.02734H72.5691V9.77734H82.0612V9.02734ZM73.6237 5.96875C73.6237 7.26367 75.0534 8.04297 77.3152 8.04297C79.5534 8.04297 80.989 7.26367 80.9948 5.96875C80.989 4.66211 79.5534 3.89453 77.3152 3.90625C75.0534 3.89453 73.6237 4.66211 73.6237 5.96875ZM73.7995 13.7266H81.0066V12.9531H74.7253V10.6914H73.7995V13.7266ZM74.573 5.96875C74.5671 5.1543 75.6335 4.64453 77.3152 4.64453C78.9851 4.64453 80.0515 5.1543 80.0573 5.96875C80.0515 6.79492 78.9851 7.29297 77.3152 7.29297C75.6335 7.29297 74.5671 6.79492 74.573 5.96875ZM94.3252 3.53125H93.3994V8.94531H94.3252V3.53125ZM85.8877 7.80859L86.0048 8.57031C87.8447 8.57617 90.2939 8.49414 92.3798 8.18359L92.333 7.50391C91.8291 7.5625 91.3017 7.61523 90.7627 7.65625V4.98438H91.8173V4.24609H86.1806V4.98438H87.2236V7.79688C86.7548 7.80273 86.3037 7.80859 85.8877 7.80859ZM87.5048 10.1875H93.4111V11.2422H87.54V13.832H94.7236V13.082H88.4423V11.9336H94.3252V9.44922H87.5048V10.1875ZM88.1142 7.7793V4.98438H89.872V7.70898C89.2802 7.74414 88.6884 7.76172 88.1142 7.7793ZM101.19 4.50391V3.90625H100.24V4.50391C100.24 5.99805 98.336 7.24023 96.4552 7.50391L96.8302 8.25391C98.4532 7.98438 100.053 7.09961 100.721 5.81055C101.389 7.08789 102.994 7.98438 104.611 8.25391L104.986 7.50391C103.106 7.24023 101.195 5.97461 101.19 4.50391ZM95.963 10.1758H100.24V13.9492H101.143V10.1758H105.455V9.40234H95.963V10.1758ZM117.743 3.53125H116.817V6.25H114.719V7.01172H116.817V9.74219H117.743V3.53125ZM109.153 8.91016L109.633 9.64844C110.875 9.17383 111.842 8.20117 112.287 6.98242C112.739 8.05469 113.647 8.93359 114.813 9.35547L115.293 8.61719C113.77 8.0957 112.727 6.80078 112.727 5.44141V5.06641H115.059V4.29297H109.446V5.06641H111.801V5.45312C111.801 6.94141 110.7 8.35352 109.153 8.91016ZM110.793 12.0039C110.787 13.2344 112.118 13.9375 114.285 13.9492C116.448 13.9375 117.778 13.2344 117.778 12.0039C117.778 10.7793 116.448 10.0645 114.285 10.0703C112.118 10.0645 110.787 10.7793 110.793 12.0039ZM111.707 12.0039C111.701 11.2422 112.686 10.7852 114.285 10.7852C115.879 10.7852 116.864 11.2422 116.864 12.0039C116.864 12.7598 115.879 13.2168 114.285 13.2109C112.686 13.2168 111.701 12.7598 111.707 12.0039ZM128.896 11.8516H124.548V9.60156H127.724V4.26953H126.822V6.15625H121.408V4.26953H120.482V9.60156H123.646V11.8516H119.357V12.6133H128.896V11.8516ZM121.408 8.85156V6.90625H126.822V8.85156H121.408ZM137.67 3.53125H136.756V13.9492H137.67V8.54688H139.358V7.77344H137.67V3.53125ZM129.678 11.2422L130.194 11.9688C133.586 10.293 134.969 7.60352 134.975 4.65625H130.159V5.42969H134.044C133.833 7.89648 132.368 9.90625 129.678 11.2422ZM146.278 10.5273V9.95312H145.387V10.5273C145.376 11.5234 144.585 12.6367 143.266 13.1289L143.735 13.8086C144.731 13.4336 145.446 12.707 145.821 11.8691C146.132 12.7422 146.776 13.5039 147.79 13.8906C148.751 13.4863 149.389 12.6836 149.712 11.8398C150.075 12.7129 150.802 13.4395 151.845 13.8086L152.302 13.1289C150.966 12.666 150.175 11.5996 150.18 10.5273V9.95312H149.278V10.5273C149.284 11.3301 148.757 12.373 147.761 12.9883C146.77 12.4258 146.272 11.4473 146.278 10.5273ZM142.997 6.58984C142.991 8.01953 144.145 9.00391 145.727 9.00391C147.309 9.00391 148.452 8.01953 148.458 6.58984C148.452 5.13672 147.309 4.14648 145.727 4.15234C144.145 4.14648 142.991 5.13672 142.997 6.58984ZM143.899 6.58984C143.887 5.61719 144.655 4.92578 145.727 4.9375C146.788 4.92578 147.555 5.61719 147.555 6.58984C147.555 7.55664 146.788 8.23633 145.727 8.24219C144.655 8.23633 143.887 7.55664 143.899 6.58984ZM150.438 9.49609H151.352V3.54297H150.438V9.49609ZM155.123 9.78906H154.209V13.8086H161.252V9.78906H160.326V11.0078H155.123V9.78906ZM153.002 9.05078H162.494V8.28906H153.002V9.05078ZM153.541 6.8125L153.893 7.55078C155.498 7.31055 157.092 6.49609 157.754 5.32422C158.416 6.49023 160.004 7.31055 161.615 7.55078L161.955 6.8125C160.121 6.57812 158.223 5.42383 158.228 4.14062V3.64844H157.279V4.14062C157.279 5.46484 155.398 6.56055 153.541 6.8125ZM155.123 13.0703V11.7344H160.326V13.0703H155.123ZM171.843 3.53125H170.929V13.9492H171.843V3.53125ZM163.933 11.2656H164.776C166.446 11.2656 168.093 11.1367 169.944 10.75L169.815 9.96484C168.069 10.334 166.429 10.457 164.835 10.4688V4.5625H163.933V11.2656ZM181.567 3.53125H180.652V13.9727H181.567V8.42969H183.313V7.65625H181.567V3.53125ZM173.961 11.3594H174.781C176.762 11.3594 178.127 11.3008 179.762 11.0078L179.645 10.2109C178.092 10.498 176.762 10.5801 174.875 10.5859V5.3125H178.824V4.55078H173.961V11.3594ZM184.857 13.0703C185.273 13.0645 185.613 12.7246 185.607 12.3086C185.613 11.8984 185.273 11.5586 184.857 11.5586C184.447 11.5586 184.095 11.8984 184.107 12.3086C184.095 12.7246 184.447 13.0645 184.857 13.0703Z" fill="#7E818D"/>
<path d="M8 5.66634C8.36667 5.66634 8.66667 5.96634 8.66667 6.33301L8.66667 8.99968C8.66667 9.36634 8.36667 9.66634 8 9.66634C7.63333 9.66634 7.33333 9.36634 7.33333 8.99968L7.33334 6.33301C7.33334 5.96634 7.63334 5.66634 8 5.66634ZM7.99334 2.33301C4.31334 2.33301 1.33334 5.31967 1.33333 8.99967C1.33333 12.6797 4.31333 15.6663 7.99333 15.6663C11.68 15.6663 14.6667 12.6797 14.6667 8.99968C14.6667 5.31968 11.68 2.33301 7.99334 2.33301ZM8 14.333C5.05333 14.333 2.66667 11.9463 2.66667 8.99967C2.66667 6.05301 5.05334 3.66634 8 3.66634C10.9467 3.66634 13.3333 6.05301 13.3333 8.99968C13.3333 11.9463 10.9467 14.333 8 14.333ZM8.66667 11.6663C8.66667 12.0345 8.36819 12.333 8 12.333V12.333C7.63181 12.333 7.33333 12.0345 7.33333 11.6663V11.6663C7.33333 11.2982 7.63181 10.9997 8 10.9997V10.9997C8.36819 10.9997 8.66667 11.2982 8.66667 11.6663V11.6663Z" fill="#DD5C54"/>
</svg>
