<svg width="140" height="17" viewBox="0 0 140 17" fill="none" xmlns="http://www.w3.org/2000/svg">
<path d="M27.9492 8.86328H18.4102V9.625H22.793V11.7578H23.707V9.625H27.9492V8.86328ZM19.6289 13.7266H26.8828V12.9531H20.5547V10.7266H19.6289V13.7266ZM19.6523 7.66797H26.707V4.04688H19.6523V7.66797ZM20.5547 6.92969V4.77344H25.793V6.92969H20.5547ZM32.0831 4.29297C30.4366 4.29883 29.2648 5.29492 29.2706 6.74219C29.2648 8.19531 30.4366 9.18555 32.0831 9.19141C33.7179 9.18555 34.878 8.19531 34.8839 6.74219C34.878 5.29492 33.7179 4.29883 32.0831 4.29297ZM28.7316 10.8906L28.8605 11.6758C30.7355 11.6758 33.296 11.6641 35.6808 11.2188L35.6105 10.5391C33.3077 10.8789 30.6534 10.8965 28.7316 10.8906ZM30.173 6.74219C30.1671 5.77539 30.9698 5.10156 32.0831 5.10156C33.1847 5.10156 33.9874 5.77539 33.9816 6.74219C33.9874 7.71484 33.1847 8.38281 32.0831 8.38281C30.9698 8.38281 30.1671 7.71484 30.173 6.74219ZM36.3019 13.9727H37.2159V3.53125H36.3019V13.9727ZM50.7103 3.53125H49.808V7.77344H48.308V3.76562H47.4408V13.4102H48.308V8.55859H49.808V13.9492H50.7103V3.53125ZM42.3431 11.2539H42.9877C44.1361 11.2539 45.3314 11.1777 46.7845 10.9141L46.6673 10.0938C45.4017 10.3516 44.2884 10.4277 43.2572 10.4336V4.80859H42.3431V11.2539ZM61.5591 8.6875H59.2036V7.2168C60.0239 6.88867 60.4868 6.36133 60.4927 5.66406C60.4868 4.43945 59.0805 3.73633 56.813 3.73047C54.5278 3.73633 53.1216 4.43945 53.1216 5.66406C53.1216 6.36719 53.5903 6.89453 54.4223 7.2168V8.6875H52.0669V9.44922H61.5591V8.6875ZM53.2153 12.0859C53.2095 13.2754 54.5513 13.9258 56.813 13.9258C59.0454 13.9258 60.3872 13.2754 60.3989 12.0859C60.3872 10.8965 59.0454 10.2402 56.813 10.2461C54.5513 10.2402 53.2095 10.8965 53.2153 12.0859ZM54.0708 5.66406C54.0649 4.91406 55.1079 4.45703 56.813 4.45703C58.5005 4.45703 59.5493 4.91406 59.5552 5.66406C59.5493 6.42578 58.5005 6.86523 56.813 6.87109C55.1079 6.86523 54.0649 6.42578 54.0708 5.66406ZM54.1528 12.0859C54.1411 11.377 55.143 10.9609 56.813 10.9492C58.4653 10.9609 59.4673 11.377 59.4731 12.0859C59.4673 12.7949 58.4653 13.2168 56.813 13.2109C55.143 13.2168 54.1411 12.7949 54.1528 12.0859ZM55.3364 8.6875V7.46875C55.7759 7.54492 56.268 7.58594 56.813 7.58594C57.3579 7.58594 57.8501 7.54492 58.2895 7.46289V8.6875H55.3364ZM67.0641 3.71875C64.7379 3.71875 63.3727 4.35742 63.3727 5.51172C63.3727 6.69531 64.7379 7.33398 67.0641 7.33984C69.3785 7.33398 70.7379 6.69531 70.7438 5.51172C70.7379 4.35742 69.3785 3.71875 67.0641 3.71875ZM62.318 8.79297H71.8102V8.04297H62.318V8.79297ZM63.4664 10.3984H69.6891V11.3477H63.4898V13.832H70.9078V13.1055H64.4039V12.0273H70.5914V9.69531H63.4664V10.3984ZM64.3336 5.51172C64.3219 4.82617 65.3355 4.41602 67.0641 4.41016C68.7926 4.41602 69.8004 4.82617 69.8063 5.51172C69.8004 6.23828 68.7926 6.63672 67.0641 6.63672C65.3355 6.63672 64.3219 6.23828 64.3336 5.51172ZM78.9881 5.46484V5.01953H81.3319V4.26953H75.7069V5.01953H78.0858V5.46484C78.0741 6.95898 76.9842 8.30078 75.4256 8.85156L75.9178 9.56641C77.1424 9.12109 78.0975 8.20117 78.5428 7.01758C78.9881 8.0957 79.8963 8.94531 81.0858 9.36719L81.5545 8.65234C80.0135 8.11914 78.994 6.85352 78.9881 5.46484ZM76.785 11.1133H82.6912V13.9492H83.6053V10.3633H76.785V11.1133ZM82.6912 9.8125H83.6053V7.07031H85.1756V6.28516H83.6053V3.53125H82.6912V9.8125ZM89.2978 5.17188V4.12891H88.3838V5.20703C88.372 6.82422 87.3056 8.20703 85.7002 8.76953L86.2041 9.51953C87.4638 9.04492 88.413 8.07812 88.8584 6.83008C89.3095 7.92578 90.2119 8.77539 91.3603 9.20312L91.8759 8.48828C90.3466 7.9668 89.2861 6.66016 89.2978 5.17188ZM87.3994 11.9805C87.3935 13.2227 88.7236 13.9258 90.8916 13.9258C93.0537 13.9258 94.3838 13.2227 94.3838 11.9805C94.3838 10.7266 93.0537 10.0059 90.8916 10.0117C88.7236 10.0059 87.3935 10.7266 87.3994 11.9805ZM88.3134 11.9805C88.3076 11.2012 89.292 10.7383 90.8916 10.7383C92.4853 10.7383 93.4697 11.2012 93.4697 11.9805C93.4697 12.7363 92.4853 13.1934 90.8916 13.1875C89.292 13.1934 88.3076 12.7363 88.3134 11.9805ZM91.1025 6.53125H93.4228V9.70703H94.3486V3.53125H93.4228V5.76953H91.1025V6.53125ZM101.166 5.33594H99.0216V3.84766H98.1075V5.33594H95.9395V6.08594H101.166V5.33594ZM96.3145 9.15625C96.3145 10.5566 97.2579 11.541 98.5528 11.5469C99.8653 11.541 100.803 10.5566 100.815 9.15625C100.803 7.77344 99.8653 6.79492 98.5528 6.78906C97.2579 6.79492 96.3145 7.77344 96.3145 9.15625ZM97.1348 9.15625C97.1348 8.24219 97.7266 7.57422 98.5528 7.5625C99.3848 7.57422 99.9942 8.24219 99.9942 9.15625C99.9942 10.082 99.3848 10.7441 98.5528 10.7383C97.7266 10.7441 97.1348 10.082 97.1348 9.15625ZM101.705 13.4336H102.572V8.6875H103.955V13.9492H104.834V3.53125H103.955V7.92578H102.572V3.78906H101.705V13.4336ZM111.476 5.00781V4.9375H114.804V4.1875H107.105V4.9375H110.445V5.00781C110.439 6.40234 108.587 7.58594 106.777 7.85547L107.14 8.58203C108.739 8.30664 110.327 7.43945 110.96 6.18555C111.593 7.43945 113.181 8.30664 114.804 8.58203L115.144 7.85547C113.327 7.58594 111.47 6.40234 111.476 5.00781ZM106.214 10.2344H110.491V13.9492H111.394V10.2344H115.706V9.47266H106.214V10.2344ZM119.559 6.49609V4.51562H118.668V6.53125C118.668 8.31836 117.789 10.1641 116.348 11.0078L116.934 11.6992C117.977 11.0664 118.75 9.87109 119.131 8.48242C119.494 9.75391 120.215 10.8672 121.223 11.4766L121.75 10.7617C120.368 9.94141 119.559 8.1543 119.559 6.49609ZM120.602 8.05469H122.371V13.4219H123.239V3.75391H122.371V7.26953H120.602V8.05469ZM124.504 13.9492H125.395V3.53125H124.504V13.9492ZM136.255 11.8398H133.888V9.00391C134.749 8.54102 135.271 7.80273 135.271 6.87109C135.271 5.25977 133.689 4.19922 131.462 4.1875C129.236 4.19922 127.654 5.25977 127.654 6.87109C127.654 7.82031 128.193 8.57031 129.083 9.0332V11.8398H126.716V12.6133H136.255V11.8398ZM128.544 6.87109C128.539 5.70508 129.751 4.9375 131.462 4.94922C133.156 4.9375 134.38 5.70508 134.38 6.87109C134.38 8.03711 133.156 8.81641 131.462 8.81641C129.751 8.81641 128.539 8.03711 128.544 6.87109ZM129.986 11.8398V9.36719C130.431 9.48438 130.929 9.54297 131.462 9.54297C132.007 9.54297 132.511 9.47852 132.962 9.36133V11.8398H129.986ZM138.069 13.0703C138.485 13.0645 138.825 12.7246 138.819 12.3086C138.825 11.8984 138.485 11.5586 138.069 11.5586C137.659 11.5586 137.307 11.8984 137.319 12.3086C137.307 12.7246 137.659 13.0645 138.069 13.0703Z" fill="#7E818D"/>
<path d="M8 5.66634C8.36667 5.66634 8.66667 5.96634 8.66667 6.33301L8.66667 8.99968C8.66667 9.36634 8.36667 9.66634 8 9.66634C7.63333 9.66634 7.33333 9.36634 7.33333 8.99968L7.33334 6.33301C7.33334 5.96634 7.63334 5.66634 8 5.66634ZM7.99334 2.33301C4.31334 2.33301 1.33334 5.31967 1.33333 8.99967C1.33333 12.6797 4.31333 15.6663 7.99333 15.6663C11.68 15.6663 14.6667 12.6797 14.6667 8.99968C14.6667 5.31968 11.68 2.33301 7.99334 2.33301ZM8 14.333C5.05333 14.333 2.66667 11.9463 2.66667 8.99967C2.66667 6.05301 5.05334 3.66634 8 3.66634C10.9467 3.66634 13.3333 6.05301 13.3333 8.99968C13.3333 11.9463 10.9467 14.333 8 14.333ZM8.66667 11.6663C8.66667 12.0345 8.36819 12.333 8 12.333V12.333C7.63181 12.333 7.33333 12.0345 7.33333 11.6663V11.6663C7.33333 11.2982 7.63181 10.9997 8 10.9997V10.9997C8.36819 10.9997 8.66667 11.2982 8.66667 11.6663V11.6663Z" fill="#DD5C54"/>
</svg>
