<svg width="160" height="96" viewBox="0 0 160 96" fill="none" xmlns="http://www.w3.org/2000/svg">
<g filter="url(#filter0_d_1195_24163)">
<rect x="16" y="10" width="128" height="64" rx="4" fill="white" fill-opacity="0.6" shape-rendering="crispEdges"/>
<path d="M76.3086 33.6211H74.1816V49.6172H76.3086V33.6211ZM62.1406 44.9414L63.4941 46.5938C64.9619 45.6973 65.9287 44.1152 66.4736 42.252C67.0186 43.9746 67.9502 45.3984 69.3828 46.2422L70.7012 44.5898C68.3633 43.2539 67.5283 40.5645 67.5371 37.9102V37.0488H69.9629V35.2559H62.7559V37.0488H65.375V37.9102C65.375 40.626 64.4961 43.4912 62.1406 44.9414ZM68.8203 40.916H70.9297V48.8789H73.0391V33.8848H70.9297V39.1055H68.8203V40.916ZM92.4411 41.1094H77.8512V42.8848H84.0212V44.2559H79.5387V49.4414H90.7009V44.2559H86.2536V42.8848H92.4411V41.1094ZM79.1345 35.8535H81.2087V38.2969H79.2399V40.0898H91.0348V38.2969H89.0485V35.8535H91.1403V34.0605H79.1345V35.8535ZM81.7536 47.6484V45.9961H88.5036V47.6484H81.7536ZM83.4587 38.2969V35.8535H86.7985V38.2969H83.4587ZM111.821 41.5312H97.1787V43.3066H103.577V46.0664H105.792V43.3066H111.821V41.5312ZM98.9014 49.3359H110.204V47.543H101.134V44.6777H98.9014V49.3359ZM99.0069 40.2129H109.94V34.3242H99.0069V40.2129ZM101.204 38.4727V36.0645H107.743V38.4727H101.204ZM117.759 34.6934C115.236 34.6846 113.302 36.3193 113.311 38.6133C113.302 40.916 115.236 42.542 117.759 42.5508C120.299 42.542 122.179 40.916 122.188 38.6133C122.179 36.3193 120.299 34.6846 117.759 34.6934ZM112.643 44.5547L112.907 46.3828C115.702 46.3828 119.499 46.3564 123.05 45.6621L122.874 44.0449C119.455 44.5283 115.5 44.5635 112.643 44.5547ZM115.544 38.6133C115.535 37.3652 116.493 36.627 117.759 36.627C119.033 36.627 120 37.3652 120.009 38.6133C120 39.8789 119.033 40.6084 117.759 40.5996C116.493 40.6084 115.535 39.8789 115.544 38.6133ZM123.788 49.6523H126.02V33.6211H123.788V49.6523Z" fill="#55576F"/>
<circle cx="51.6875" cy="37.8125" r="2.1875" stroke="#55576F" stroke-width="1.7"/>
<circle cx="42.5" cy="35.625" r="3.5" stroke="#55576F" stroke-width="1.7"/>
<path d="M36.375 46.125C36.375 43.7088 38.3338 41.75 40.75 41.75H44.25C46.6662 41.75 48.625 43.7088 48.625 46.125V48.75H36.375V46.125Z" stroke="#55576F" stroke-width="1.7"/>
<path d="M50.8126 42.625L52.125 42.625C54.058 42.625 55.625 44.192 55.625 46.125V47.875H48.625" stroke="#55576F" stroke-width="1.7"/>
<rect x="16.5" y="10.5" width="127" height="63" rx="3.5" stroke="white" shape-rendering="crispEdges"/>
</g>
<defs>
<filter id="filter0_d_1195_24163" x="0" y="0" width="160" height="96" filterUnits="userSpaceOnUse" color-interpolation-filters="sRGB">
<feFlood flood-opacity="0" result="BackgroundImageFix"/>
<feColorMatrix in="SourceAlpha" type="matrix" values="0 0 0 0 0 0 0 0 0 0 0 0 0 0 0 0 0 0 127 0" result="hardAlpha"/>
<feOffset dy="6"/>
<feGaussianBlur stdDeviation="8"/>
<feComposite in2="hardAlpha" operator="out"/>
<feColorMatrix type="matrix" values="0 0 0 0 0.833333 0 0 0 0 0.430556 0 0 0 0 0.527222 0 0 0 0.05 0"/>
<feBlend mode="normal" in2="BackgroundImageFix" result="effect1_dropShadow_1195_24163"/>
<feBlend mode="normal" in="SourceGraphic" in2="effect1_dropShadow_1195_24163" result="shape"/>
</filter>
</defs>
</svg>
