<svg width="328" height="224" viewBox="0 0 328 224" fill="none" xmlns="http://www.w3.org/2000/svg">
<g opacity="0.9" filter="url(#filter0_bd_1264_20588)">
<rect x="16" y="12" width="296" height="192" rx="4" fill="white"/>
</g>
<path d="M43.7168 38.6797H32.3691V40.0742H37.1543V44.2578H38.877V40.0742H43.7168V38.6797ZM32.9297 36.5879L33.5723 37.9551C35.7393 37.6611 37.291 36.7314 38.0498 35.4531C38.8018 36.7314 40.3672 37.6611 42.5547 37.9551L43.1836 36.5879C40.627 36.2803 39.2529 35.0635 39.0752 33.8398H42.7051V32.4727H33.3945V33.8398H37.0244C36.8398 35.0635 35.4453 36.2803 32.9297 36.5879ZM49.1002 33.5801V32.3906H47.2819V33.5801C47.2819 35.166 46.3659 36.7861 44.2877 37.4492L45.1627 38.8164C46.6256 38.3447 47.6373 37.374 48.1979 36.1504C48.7516 37.2852 49.736 38.1738 51.151 38.625L52.026 37.2578C49.9752 36.6426 49.0866 35.1318 49.1002 33.5801ZM46.1881 41.168H52.9967V44.2578H54.7467V39.7734H46.1881V41.168ZM52.9967 39.2402H54.7467V31.8164H52.9967V39.2402ZM66.7473 31.8164H65.011V44.2578H66.7473V31.8164ZM56.343 40.7441L56.5755 42.166C58.7903 42.1729 61.7229 42.1455 64.4505 41.6738L64.3274 40.3887C63.3294 40.5186 62.2835 40.6006 61.2376 40.6484V39.6572C62.6048 39.4043 63.4934 38.5566 63.4934 37.3945C63.4934 36.0068 62.2083 35.0566 60.3626 35.0566C58.5305 35.0566 57.2659 36.0068 57.2727 37.3945C57.2659 38.5635 58.1546 39.4111 59.5149 39.6572V40.71C58.3802 40.7373 57.2932 40.7373 56.343 40.7441ZM56.5891 34.5645H64.1497V33.1973H61.2512V31.8711H59.5149V33.1973H56.5891V34.5645ZM58.927 37.3945C58.9202 36.752 59.5149 36.3896 60.3626 36.3828C61.2376 36.3896 61.8255 36.752 61.8255 37.3945C61.8255 38.0508 61.2376 38.4062 60.3626 38.4062C59.5149 38.4062 58.9202 38.0508 58.927 37.3945ZM72.828 34.6328V32.7734H71.078V34.6328C71.078 36.9434 70.0868 39.3223 67.9745 40.293L69.0546 41.7012C70.4628 41.0039 71.4198 39.6846 71.9667 38.0781C72.4794 39.5752 73.3818 40.8057 74.7148 41.4688L75.7675 40.0742C73.7714 39.1104 72.8212 36.8613 72.828 34.6328ZM76.3144 44.2578H78.0644V38.0918H79.8964V36.6152H78.0644V31.8164H76.3144V44.2578ZM93.1105 31.8164H91.3879V44.2852H93.1105V37.9551H94.9426V36.5195H93.1105V31.8164ZM83.8 34.2637H87.8195V36.3008H83.8137V41.3867H84.8664C87.0539 41.3867 88.7629 41.3115 90.6633 40.9629L90.5129 39.5684C88.8586 39.8486 87.3615 39.9307 85.55 39.9375V37.6816H89.5559V32.8555H83.8V34.2637ZM100.558 33.1016H95.6092V41.127H100.558V37.7363H101.803V43.6836H103.443V31.9941H101.803V36.3418H100.558V33.1016ZM97.2362 39.7598V34.4824H98.9315V39.7598H97.2362ZM104.373 44.2578H106.041V31.8164H104.373V44.2578ZM117.631 31.8164H115.868V44.2852H117.631V31.8164ZM107.965 41.3184H109.045C111.739 41.3184 113.325 41.2637 115.047 40.9355L114.883 39.5C113.318 39.7803 111.944 39.8418 109.715 39.8418V34.332H114.022V32.9102H107.965V41.3184ZM124.409 32.6367H119.665V39.0215H120.513C122.393 39.0283 123.582 38.9941 125.011 38.7617L124.833 37.3945C123.678 37.5859 122.687 37.6406 121.333 37.6543V36.4648H123.944V35.1387H121.333V34.0312H124.409V32.6367ZM121.224 41.4551H128.128V44.2578H129.864V40.0605H121.224V41.4551ZM124.478 36.3828H125.735V39.4863H127.39V32.0625H125.735V34.9746H124.478V36.3828ZM128.21 39.5684H129.864V31.8301H128.21V39.5684Z" fill="#4D5058"/>
<path d="M41.3281 64.5312H40.4492V68.7266H38.9141V64.7656H38.0703V74.4102H38.9141V69.4883H40.4492V74.9492H41.3281V64.5312ZM32.8086 72.3711H33.4766C35.0762 72.3652 36.1367 72.3242 37.3906 72.0664L37.3086 71.293C36.1484 71.5273 35.1582 71.5801 33.7227 71.5859V66.5703H36.7109V65.8086H32.8086V72.3711ZM52.212 72.9102H49.4816V70.4258H51.2745V69.6641H49.6456V66.2656H51.298V65.5039H43.5167V66.2656H45.1691V69.6641H43.5402V70.4258H45.3331V72.9102H42.673V73.6719H52.212V72.9102ZM46.0831 69.6641V66.2656H48.7433V69.6641H46.0831ZM46.2589 72.9102V70.4258H48.5675V72.9102H46.2589ZM56.4514 67.7305V66.3711H58.7952V65.6094H53.1233V66.3711H55.5491V67.7305C55.5373 69.5059 54.2483 71.4863 52.7483 72.2188L53.3108 72.9453C54.4768 72.3477 55.5198 71 56.0002 69.4707C56.469 70.8828 57.4592 72.1133 58.6311 72.6875L59.1584 71.9609C57.6467 71.2402 56.4397 69.4004 56.4514 67.7305ZM60.0725 74.9492H60.9866V69.5352H62.7327V68.75H60.9866V64.5312H60.0725V74.9492ZM70.0161 70.0273H69.1138V71.9844C68.0298 72.0195 66.9985 72.0254 66.1255 72.0312L66.2544 72.793C68.1294 72.7988 70.6899 72.7812 73.0747 72.3477L73.0044 71.668C72.0434 71.8145 71.0239 71.8965 70.0161 71.9492V70.0273ZM66.4419 69.6641L66.8872 70.3672C68.1411 69.9863 69.1138 69.1543 69.5649 68.041C70.0337 69.0957 71.018 69.8984 72.2661 70.2734L72.6997 69.5469C71.1587 69.1074 70.0454 68.0059 70.0161 66.6641H72.4653V65.9023H70.0161V64.6133H69.1138V65.9023H66.6997V66.6641H69.0903C69.0669 68.0645 67.9829 69.207 66.4419 69.6641ZM73.6958 74.9727H74.6098V64.5312H73.6958V74.9727ZM81.5094 68.2344H80.607V69.7227H76.318V70.4844H85.8102V69.7227H81.5094V68.2344ZM76.8453 68.0234L77.1852 68.75C78.902 68.5391 80.4898 67.7949 81.0641 66.6406C81.6383 67.7949 83.2379 68.5391 84.943 68.75L85.2828 68.0234C83.4664 67.8301 81.7262 66.9336 81.6617 65.7734H84.9664V65.0234H77.1852V65.7734H80.4664C80.402 66.9395 78.6617 67.8301 76.8453 68.0234ZM77.4664 73.1328C77.4605 74.293 78.8023 74.9258 81.0641 74.9258C83.3023 74.9258 84.6383 74.293 84.65 73.1328C84.6383 71.9785 83.3023 71.3398 81.0641 71.3398C78.8023 71.3398 77.4605 71.9785 77.4664 73.1328ZM78.4039 73.1328C78.3922 72.4531 79.3766 72.0605 81.0641 72.0664C82.734 72.0605 83.7184 72.4531 83.7242 73.1328C83.7184 73.8184 82.734 74.2168 81.0641 74.2109C79.3766 74.2168 78.3922 73.8184 78.4039 73.1328ZM90.1198 66.207V65.0703H89.2175V66.1719C89.2058 67.7773 88.1628 69.1543 86.5808 69.7109L87.0847 70.4727C88.3093 69.9922 89.2468 69.0312 89.6862 67.8008C90.1316 68.9141 91.0398 69.7988 92.1941 70.2266L92.698 69.4883C91.1862 68.9668 90.114 67.6426 90.1198 66.207ZM88.198 72.0078H94.28V74.9492H95.2058V71.2695H88.198V72.0078ZM91.9597 67.4961H94.28V70.6953H95.2058V64.5312H94.28V66.7227H91.9597V67.4961ZM104.455 64.3203H103.588V75.1953H104.455V64.3203ZM112.535 67.332V65.4336H111.633V67.332C111.621 69.2363 110.414 71.2344 108.891 71.9844L109.477 72.7227C110.649 72.0957 111.633 70.7773 112.096 69.2422C112.559 70.6895 113.52 71.9258 114.668 72.5234L115.231 71.7852C113.748 71.0586 112.535 69.166 112.535 67.332ZM116.192 74.9492H117.106V69.5586H118.852V68.7617H117.106V64.5312H116.192V74.9492ZM122.165 65.0234C120.578 65.0176 119.453 66.0137 119.458 67.4258C119.453 68.8555 120.578 69.8398 122.165 69.8398C123.578 69.8398 124.65 69.0195 124.831 67.7891H127.005V70.1211H127.931V64.5312H127.005V67.0273H124.826C124.626 65.832 123.56 65.0176 122.165 65.0234ZM120.337 67.4258C120.337 66.4648 121.093 65.7969 122.165 65.8086C123.214 65.7969 123.97 66.4648 123.97 67.4258C123.97 68.375 123.214 69.0605 122.165 69.0664C121.093 69.0605 120.337 68.375 120.337 67.4258ZM121.216 74.8086H127.931V70.6484H127.005V71.9727H122.142V70.6484H121.216V74.8086ZM122.142 74.0586V72.7109H127.005V74.0586H122.142ZM133.073 67.7305V66.3711H135.417V65.6094H129.745V66.3711H132.17V67.7305C132.159 69.5059 130.87 71.4863 129.37 72.2188L129.932 72.9453C131.098 72.3477 132.141 71 132.622 69.4707C133.09 70.8828 134.081 72.1133 135.253 72.6875L135.78 71.9609C134.268 71.2402 133.061 69.4004 133.073 67.7305ZM136.694 74.9492H137.608V69.5352H139.354V68.75H137.608V64.5312H136.694V74.9492ZM148.433 64.543H147.507V67.4727H145.047V65.2344H144.144V67.0859H141.238V65.2344H140.324V70.4727H145.047V68.2461H147.507V72.2539H148.433V64.543ZM141.238 69.7109V67.8125H144.144V69.7109H141.238ZM141.695 74.7266H148.668V73.9531H142.621V71.4922H141.695V74.7266ZM159.048 66.0781H155.239V64.707H154.337V66.0781H150.516V66.8398H159.048V66.0781ZM150.048 73.7305H159.587V72.9688H155.239V71.5039C157.079 71.4043 158.221 70.6836 158.216 69.5117C158.221 68.2754 156.891 67.543 154.794 67.5547C152.667 67.543 151.36 68.2754 151.372 69.5117C151.36 70.6836 152.479 71.4043 154.337 71.5039V72.9688H150.048V73.7305ZM152.298 69.5117C152.286 68.7383 153.241 68.2812 154.794 68.2812C156.329 68.2812 157.284 68.7383 157.278 69.5117C157.284 70.3027 156.329 70.7598 154.794 70.7656C153.241 70.7598 152.286 70.3027 152.298 69.5117ZM164.292 74.0703C164.708 74.0645 165.048 73.7246 165.042 73.3086C165.048 72.8984 164.708 72.5586 164.292 72.5586C163.882 72.5586 163.53 72.8984 163.542 73.3086C163.53 73.7246 163.882 74.0645 164.292 74.0703ZM163.542 68.5977C163.53 69.0137 163.882 69.3535 164.292 69.3594C164.708 69.3535 165.048 69.0137 165.042 68.5977C165.048 68.1875 164.708 67.8477 164.292 67.8477C163.882 67.8477 163.53 68.1875 163.542 68.5977ZM172.384 65.5156H171.318L169.208 66.9219V67.9883L171.271 66.6172H171.318V74H172.384V65.5156ZM177.526 65.5156H176.459L174.35 66.9219V67.9883L176.413 66.6172H176.459V74H177.526V65.5156ZM182.492 65.3984C180.687 65.3809 179.527 66.6641 179.527 68.2461C179.527 69.8809 180.787 71.0469 182.304 71.0469C183.207 71.0469 183.986 70.625 184.472 69.9219H184.589C184.578 71.9844 183.734 73.1797 182.351 73.1797C181.408 73.1797 180.828 72.6172 180.64 71.8555H179.597C179.808 73.2031 180.857 74.1172 182.351 74.1172C184.337 74.1172 185.574 72.4355 185.574 69.418C185.574 66.2949 183.951 65.416 182.492 65.3984ZM180.558 68.2344C180.546 67.1855 181.384 66.3242 182.492 66.3242C183.611 66.3242 184.425 67.2383 184.425 68.2109C184.425 69.207 183.564 70.1211 182.457 70.1211C181.349 70.1211 180.552 69.2832 180.558 68.2344ZM190.563 69.9102H186.848V70.8359H190.563V69.9102ZM194.814 74.1172C196.584 74.1172 197.826 73.127 197.838 71.75C197.826 70.6543 197.064 69.7461 196.103 69.5938V69.5469C196.935 69.3535 197.498 68.5742 197.51 67.6484C197.498 66.3535 196.361 65.3984 194.814 65.3984C193.261 65.3984 192.125 66.3535 192.131 67.6484C192.125 68.5742 192.681 69.3535 193.525 69.5469V69.5938C192.558 69.7461 191.797 70.6543 191.803 71.75C191.797 73.127 193.027 74.1172 194.814 74.1172ZM192.857 71.6914C192.84 70.7539 193.678 70.0625 194.814 70.0625C195.957 70.0625 196.783 70.7539 196.783 71.6914C196.783 72.582 196.027 73.1855 194.814 73.1914C193.595 73.1855 192.84 72.582 192.857 71.6914ZM193.15 67.7305C193.156 66.8809 193.806 66.3066 194.814 66.3125C195.804 66.3066 196.478 66.8809 196.478 67.7305C196.478 68.5859 195.781 69.166 194.814 69.1719C193.842 69.166 193.156 68.5859 193.15 67.7305ZM202.089 74.1172C203.876 74.1348 205.042 72.8574 205.042 71.2578C205.042 69.6172 203.782 68.4453 202.276 68.4453C201.362 68.4453 200.583 68.8613 200.097 69.5703H199.991C199.985 67.5254 200.823 66.3359 202.218 66.3359C203.161 66.3359 203.735 66.8984 203.929 67.6484H204.972C204.755 66.3184 203.712 65.3984 202.218 65.3984C200.225 65.3984 198.995 67.0801 198.995 70.0859C198.995 73.2266 200.618 74.0996 202.089 74.1172ZM200.132 71.2812C200.143 70.2793 200.999 69.377 202.112 69.3711C203.22 69.377 204.016 70.2266 204.022 71.2695C204.016 72.3242 203.184 73.1855 202.089 73.1914C200.952 73.1855 200.138 72.2773 200.132 71.2812ZM210.031 69.9102H206.316V70.8359H210.031V69.9102ZM214.212 74.1172C215.905 74.1172 217.136 72.9336 217.142 71.293C217.136 69.6406 215.946 68.4453 214.329 68.4453C213.732 68.4453 213.163 68.6445 212.782 68.9375H212.7L213.017 66.4531H216.732V65.5156H212.138L211.54 70.1562H212.56C212.87 69.6055 213.427 69.3828 214.142 69.3945C215.284 69.4004 216.11 70.2148 216.11 71.3164C216.11 72.3828 215.314 73.1855 214.212 73.1914C213.292 73.1855 212.554 72.623 212.478 71.8672H211.458C211.523 73.1738 212.683 74.1172 214.212 74.1172ZM221.487 65.5156H220.42L218.311 66.9219V67.9883L220.373 66.6172H220.42V74H221.487V65.5156ZM223.898 74H224.999L228.878 66.5V65.5156H223.3V66.4531H227.788V66.5117L223.898 74ZM232.801 74.1172C234.571 74.1172 235.813 73.127 235.825 71.75C235.813 70.6543 235.051 69.7461 234.09 69.5938V69.5469C234.922 69.3535 235.485 68.5742 235.497 67.6484C235.485 66.3535 234.348 65.3984 232.801 65.3984C231.249 65.3984 230.112 66.3535 230.118 67.6484C230.112 68.5742 230.668 69.3535 231.512 69.5469V69.5938C230.545 69.7461 229.784 70.6543 229.79 71.75C229.784 73.127 231.014 74.1172 232.801 74.1172ZM230.844 71.6914C230.827 70.7539 231.665 70.0625 232.801 70.0625C233.944 70.0625 234.77 70.7539 234.77 71.6914C234.77 72.582 234.014 73.1855 232.801 73.1914C231.583 73.1855 230.827 72.582 230.844 71.6914ZM231.137 67.7305C231.143 66.8809 231.793 66.3066 232.801 66.3125C233.791 66.3066 234.465 66.8809 234.465 67.7305C234.465 68.5859 233.768 69.166 232.801 69.1719C231.829 69.166 231.143 68.5859 231.137 67.7305ZM240.076 74.1172C241.863 74.1348 243.029 72.8574 243.029 71.2578C243.029 69.6172 241.769 68.4453 240.263 68.4453C239.349 68.4453 238.57 68.8613 238.084 69.5703H237.978C237.972 67.5254 238.81 66.3359 240.205 66.3359C241.148 66.3359 241.722 66.8984 241.916 67.6484H242.959C242.742 66.3184 241.699 65.3984 240.205 65.3984C238.212 65.3984 236.982 67.0801 236.982 70.0859C236.982 73.2266 238.605 74.0996 240.076 74.1172ZM238.119 71.2812C238.13 70.2793 238.986 69.377 240.099 69.3711C241.207 69.377 242.004 70.2266 242.009 71.2695C242.004 72.3242 241.171 73.1855 240.076 73.1914C238.939 73.1855 238.125 72.2773 238.119 71.2812ZM41.9141 87.0625H37.6133V86.0312H40.7891V85.293H34.6016V84.2617H40.4492V83.5586H34.6016V82.5859H40.7305V81.8359H33.6758V86.0312H36.6992V87.0625H32.4102V87.8125H41.9141V87.0625ZM33.5703 90.2617C33.5645 91.3574 34.8594 91.9258 37.168 91.9258C39.4531 91.9258 40.7422 91.3574 40.7539 90.2617C40.7422 89.1777 39.4531 88.5859 37.168 88.5977C34.8594 88.5859 33.5645 89.1777 33.5703 90.2617ZM34.4961 90.2617C34.4844 89.6406 35.4453 89.2949 37.168 89.2891C38.873 89.2949 39.8223 89.6406 39.8281 90.2617C39.8223 90.8945 38.873 91.2227 37.168 91.2109C35.4453 91.2227 34.4844 90.8945 34.4961 90.2617ZM51.2745 81.543H50.3605V89.1836H51.2745V81.543ZM42.7784 86.957L43.2823 87.6719C44.5011 87.1855 45.4503 86.1602 45.9015 84.8828C46.3644 86.084 47.3019 87.0215 48.5089 87.4844L48.9894 86.7461C47.4366 86.1836 46.3527 84.7598 46.3644 83.1719V82.1289H45.4269V83.1719C45.4269 84.8184 44.3546 86.3418 42.7784 86.957ZM44.548 91.7266H51.6027V90.9531H45.462V88.4805H44.548V91.7266ZM58.8772 82.5273H53.2522V83.2773H54.3069V86.8691C53.8323 86.8809 53.3811 86.8867 52.9592 86.8867L53.0647 87.6484C54.8752 87.6543 57.3245 87.6016 59.4397 87.2734L59.3694 86.582C58.8713 86.6406 58.344 86.6934 57.8108 86.7285V83.2773H58.8772V82.5273ZM54.553 91.7266H61.5491V90.9531H55.4553V88.4805H54.553V91.7266ZM55.2092 86.8516V83.2773H56.9084V86.7871C56.3401 86.8164 55.7659 86.8398 55.2092 86.8516ZM60.1545 89.207H61.0686V85.4922H62.6389V84.707H61.0686V81.543H60.1545V89.207ZM72.1048 81.5312H71.2142V85.668H69.7611V81.7539H68.8822V91.4219H69.7611V86.4297H71.2142V91.9492H72.1048V81.5312ZM63.5619 89.1484H67.5462V82.75H63.5619V89.1484ZM64.4291 88.4102V83.4883H66.6791V88.4102H64.4291ZM76.2973 82.0234C74.7095 82.0176 73.5845 83.0137 73.5903 84.4258C73.5845 85.8555 74.7095 86.8398 76.2973 86.8398C77.7095 86.8398 78.7817 86.0195 78.9634 84.7891H81.1372V87.1211H82.063V81.5312H81.1372V84.0273H78.9575C78.7583 82.832 77.6919 82.0176 76.2973 82.0234ZM74.4692 84.4258C74.4692 83.4648 75.2251 82.7969 76.2973 82.8086C77.3462 82.7969 78.102 83.4648 78.102 84.4258C78.102 85.375 77.3462 86.0605 76.2973 86.0664C75.2251 86.0605 74.4692 85.375 74.4692 84.4258ZM75.3481 91.8086H82.063V87.6484H81.1372V88.9727H76.2739V87.6484H75.3481V91.8086ZM76.2739 91.0586V89.7109H81.1372V91.0586H76.2739ZM92.2789 81.543H91.3648V89.1836H92.2789V81.543ZM83.7828 86.957L84.2867 87.6719C85.5055 87.1855 86.4547 86.1602 86.9059 84.8828C87.3688 86.084 88.3063 87.0215 89.5133 87.4844L89.9938 86.7461C88.441 86.1836 87.357 84.7598 87.3688 83.1719V82.1289H86.4313V83.1719C86.4313 84.8184 85.359 86.3418 83.7828 86.957ZM85.5523 91.7266H92.607V90.9531H86.4664V88.4805H85.5523V91.7266ZM102.284 82.5859H94.9362V83.3477H101.358V83.6289C101.352 84.877 101.352 86.3359 100.96 88.3281L101.897 88.4336C102.272 86.3359 102.272 84.9062 102.284 83.6289V82.5859ZM93.9284 90.4727H103.421V89.7109H98.5573V85.9844H97.655V89.7109H93.9284V90.4727ZM112.816 81.543H111.89V84.4727H109.43V82.2344H108.527V84.0859H105.621V82.2344H104.707V87.4727H109.43V85.2461H111.89V89.2539H112.816V81.543ZM105.621 86.7109V84.8125H108.527V86.7109H105.621ZM106.078 91.7266H113.051V90.9531H107.004V88.4922H106.078V91.7266ZM123.431 83.0781H119.622V81.707H118.72V83.0781H114.899V83.8398H123.431V83.0781ZM114.431 90.7305H123.97V89.9688H119.622V88.5039C121.462 88.4043 122.604 87.6836 122.599 86.5117C122.604 85.2754 121.274 84.543 119.177 84.5547C117.05 84.543 115.743 85.2754 115.755 86.5117C115.743 87.6836 116.862 88.4043 118.72 88.5039V89.9688H114.431V90.7305ZM116.681 86.5117C116.669 85.7383 117.624 85.2812 119.177 85.2812C120.712 85.2812 121.667 85.7383 121.661 86.5117C121.667 87.3027 120.712 87.7598 119.177 87.7656C117.624 87.7598 116.669 87.3027 116.681 86.5117ZM128.675 91.0703C129.091 91.0645 129.431 90.7246 129.425 90.3086C129.431 89.8984 129.091 89.5586 128.675 89.5586C128.265 89.5586 127.913 89.8984 127.925 90.3086C127.913 90.7246 128.265 91.0645 128.675 91.0703ZM127.925 85.5977C127.913 86.0137 128.265 86.3535 128.675 86.3594C129.091 86.3535 129.431 86.0137 129.425 85.5977C129.431 85.1875 129.091 84.8477 128.675 84.8477C128.265 84.8477 127.913 85.1875 127.925 85.5977ZM142.298 81.5312H141.419V91.9492H142.298V81.5312ZM133.263 89.1719L133.849 89.8633C134.892 89.2129 135.648 87.9883 136.023 86.5527C136.386 87.877 137.113 89.002 138.138 89.6172L138.701 88.9375C137.265 88.1055 136.451 86.3066 136.451 84.5078V83.5234H138.361V82.7617H133.556V83.5234H135.56V84.5078C135.566 86.4004 134.716 88.3047 133.263 89.1719ZM137.564 86.043H139.322V91.4102H140.189V81.7891H139.322V85.293H137.564V86.043ZM144.018 91H149.526V90.0625H145.483V89.9922L147.428 87.9883C148.928 86.4414 149.368 85.7031 149.374 84.7539C149.368 83.4355 148.278 82.3984 146.737 82.3984C145.202 82.3984 144.042 83.4062 144.053 84.9062H145.049C145.055 83.957 145.688 83.3184 146.702 83.3125C147.657 83.3184 148.383 83.8809 148.389 84.7539C148.383 85.5391 147.903 86.1133 146.901 87.1797L144.006 90.2266L144.018 91ZM153.718 91.1172C155.599 91.1172 156.683 89.5352 156.683 86.7578C156.683 84.0039 155.582 82.3984 153.718 82.3984C151.849 82.3984 150.748 84.0039 150.754 86.7578C150.748 89.5352 151.838 91.1172 153.718 91.1172ZM151.773 86.7578C151.779 84.5605 152.5 83.3184 153.718 83.3125C154.937 83.3184 155.658 84.5605 155.652 86.7578C155.658 88.9551 154.943 90.1797 153.718 90.1797C152.488 90.1797 151.779 88.9551 151.773 86.7578ZM160.97 82.5156H159.903L157.794 83.9219V84.9883L159.856 83.6172H159.903V91H160.97V82.5156ZM163.381 91H164.482L168.361 83.5V82.5156H162.783V83.4531H167.271V83.5117L163.381 91ZM173.269 86.9102H169.554V87.8359H173.269V86.9102ZM177.977 84.332V82.4336H177.039V84.332C177.033 86.2539 175.826 88.2578 174.297 89.0078L174.895 89.7461C176.078 89.1191 177.057 87.7832 177.52 86.2246C177.983 87.707 178.961 88.9492 180.145 89.5586L180.695 88.8086C179.184 88.1172 177.971 86.2188 177.977 84.332ZM179.559 85.8438H182.031V91.9727H182.945V81.5312H182.031V85.0938H179.559V85.8438ZM189.306 81.6602C186.98 81.6602 185.615 82.3047 185.615 83.4648C185.615 84.6367 186.98 85.2754 189.306 85.2812C191.62 85.2754 192.98 84.6367 192.986 83.4648C192.98 82.3047 191.62 81.6602 189.306 81.6602ZM184.56 86.7109H188.837V87.6953H185.708V88.3984H191.931V89.3477H185.732V91.832H193.15V91.1055H186.646V90.0273H192.833V87.6953H189.751V86.7109H194.052V85.9727H184.56V86.7109ZM186.575 83.4648C186.564 82.7793 187.577 82.375 189.306 82.3633C191.034 82.375 192.042 82.7793 192.048 83.4648C192.042 84.1797 191.034 84.5664 189.306 84.5781C187.577 84.5664 186.564 84.1797 186.575 83.4648ZM203.096 82.0938H196.018V82.8555H202.182V82.8672C202.188 83.6758 202.188 84.6133 201.895 85.9258H194.811V86.6875H204.35V85.9258H202.821C203.096 84.625 203.096 83.6758 203.096 82.8672V82.0938ZM195.983 91.8086H203.143V88.1289H195.983V91.8086ZM196.897 91.0586V88.8555H202.229V91.0586H196.897ZM208.613 84.0273V83.6875H210.968V82.9375H208.636V81.6016H207.71V82.9375H205.355V83.6875H207.71V84.0273C207.705 85.498 206.638 86.793 205.097 87.3086L205.554 88.0234C206.779 87.5957 207.728 86.7051 208.179 85.5566C208.648 86.6289 209.603 87.4551 210.804 87.8477L211.261 87.1094C209.714 86.623 208.619 85.416 208.613 84.0273ZM207.007 91.7266H213.992V90.9531H207.933V88.6211H207.007V91.7266ZM210.605 85.5156H212.773V89.3242H213.699V81.543H212.773V84.7539H210.605V85.5156ZM219.344 86.9102H215.63V87.8359H219.344V86.9102ZM223.537 91.1172C225.418 91.1172 226.502 89.5352 226.502 86.7578C226.502 84.0039 225.4 82.3984 223.537 82.3984C221.668 82.3984 220.566 84.0039 220.572 86.7578C220.566 89.5352 221.656 91.1172 223.537 91.1172ZM221.592 86.7578C221.597 84.5605 222.318 83.3184 223.537 83.3125C224.756 83.3184 225.476 84.5605 225.47 86.7578C225.476 88.9551 224.761 90.1797 223.537 90.1797C222.306 90.1797 221.597 88.9551 221.592 86.7578ZM230.612 82.3984C228.807 82.3809 227.647 83.6641 227.647 85.2461C227.647 86.8809 228.907 88.0469 230.425 88.0469C231.327 88.0469 232.106 87.625 232.593 86.9219H232.71C232.698 88.9844 231.854 90.1797 230.472 90.1797C229.528 90.1797 228.948 89.6172 228.761 88.8555H227.718C227.929 90.2031 228.977 91.1172 230.472 91.1172C232.458 91.1172 233.694 89.4355 233.694 86.418C233.694 83.2949 232.071 82.416 230.612 82.3984ZM228.679 85.2344C228.667 84.1855 229.505 83.3242 230.612 83.3242C231.731 83.3242 232.546 84.2383 232.546 85.2109C232.546 86.207 231.684 87.1211 230.577 87.1211C229.47 87.1211 228.673 86.2832 228.679 85.2344ZM237.852 82.3984C236.047 82.3809 234.887 83.6641 234.887 85.2461C234.887 86.8809 236.146 88.0469 237.664 88.0469C238.566 88.0469 239.346 87.625 239.832 86.9219H239.949C239.938 88.9844 239.094 90.1797 237.711 90.1797C236.768 90.1797 236.188 89.6172 236 88.8555H234.957C235.168 90.2031 236.217 91.1172 237.711 91.1172C239.697 91.1172 240.934 89.4355 240.934 86.418C240.934 83.2949 239.311 82.416 237.852 82.3984ZM235.918 85.2344C235.906 84.1855 236.744 83.3242 237.852 83.3242C238.971 83.3242 239.785 84.2383 239.785 85.2109C239.785 86.207 238.924 87.1211 237.816 87.1211C236.709 87.1211 235.912 86.2832 235.918 85.2344ZM245.091 82.3984C243.286 82.3809 242.126 83.6641 242.126 85.2461C242.126 86.8809 243.386 88.0469 244.903 88.0469C245.806 88.0469 246.585 87.625 247.071 86.9219H247.189C247.177 88.9844 246.333 90.1797 244.95 90.1797C244.007 90.1797 243.427 89.6172 243.239 88.8555H242.196C242.407 90.2031 243.456 91.1172 244.95 91.1172C246.937 91.1172 248.173 89.4355 248.173 86.418C248.173 83.2949 246.55 82.416 245.091 82.3984ZM243.157 85.2344C243.146 84.1855 243.984 83.3242 245.091 83.3242C246.21 83.3242 247.025 84.2383 247.025 85.2109C247.025 86.207 246.163 87.1211 245.056 87.1211C243.948 87.1211 243.151 86.2832 243.157 85.2344ZM258.131 83.0781H254.322V81.707H253.42V83.0781H249.6V83.8398H258.131V83.0781ZM249.131 90.7305H258.67V89.9688H254.322V88.5039C256.162 88.4043 257.305 87.6836 257.299 86.5117C257.305 85.2754 255.975 84.543 253.877 84.5547C251.75 84.543 250.444 85.2754 250.455 86.5117C250.444 87.6836 251.563 88.4043 253.42 88.5039V89.9688H249.131V90.7305ZM251.381 86.5117C251.369 85.7383 252.324 85.2812 253.877 85.2812C255.412 85.2812 256.367 85.7383 256.362 86.5117C256.367 87.3027 255.412 87.7598 253.877 87.7656C252.324 87.7598 251.369 87.3027 251.381 86.5117Z" fill="#7E818D"/>
<path d="M36.0898 109.332V107.434H35.1523V109.332C35.1465 111.254 33.9395 113.258 32.4102 114.008L33.0078 114.746C34.1914 114.119 35.1699 112.783 35.6328 111.225C36.0957 112.707 37.0742 113.949 38.2578 114.559L38.8086 113.809C37.2969 113.117 36.084 111.219 36.0898 109.332ZM37.6719 110.844H40.1445V116.973H41.0586V106.531H40.1445V110.094H37.6719V110.844ZM47.4191 106.66C45.0929 106.66 43.7277 107.305 43.7277 108.465C43.7277 109.637 45.0929 110.275 47.4191 110.281C49.7335 110.275 51.0929 109.637 51.0988 108.465C51.0929 107.305 49.7335 106.66 47.4191 106.66ZM42.673 111.711H46.9503V112.695H43.8214V113.398H50.0441V114.348H43.8448V116.832H51.2628V116.105H44.7589V115.027H50.9464V112.695H47.8644V111.711H52.1652V110.973H42.673V111.711ZM44.6886 108.465C44.6769 107.779 45.6905 107.375 47.4191 107.363C49.1476 107.375 50.1554 107.779 50.1613 108.465C50.1554 109.18 49.1476 109.566 47.4191 109.578C45.6905 109.566 44.6769 109.18 44.6886 108.465ZM62.4163 112.051H52.9123V112.789H62.4163V112.051ZM53.9788 114.547H60.2483V116.949H61.1858V113.809H53.9788V114.547ZM54.178 111.043H61.2913V110.328H55.1038V109.262H60.9514V108.547H55.1038V107.551H61.2327V106.812H54.178V111.043ZM71.8002 106.531H70.8861V108.031H68.4252V107.023H67.5228V108.523H64.6166V107.023H63.7025V111.559H68.4252V110.645H70.8861V111.98H71.8002V106.531ZM64.6166 110.809V109.25H67.5228V110.809H64.6166ZM65.0502 113.223H70.8861V114.23H65.0736V116.809H72.1986V116.07H65.9877V114.934H71.8002V112.484H65.0502V113.223ZM68.4252 109.918V108.746H70.8861V109.918H68.4252ZM77.1294 109.332V107.434H76.2153V109.332C76.2036 111.307 74.9204 113.299 73.3677 114.008L73.9536 114.781C75.1723 114.166 76.1977 112.848 76.6782 111.277C77.1763 112.76 78.2016 113.996 79.3911 114.57L79.9536 113.844C78.4184 113.146 77.1235 111.236 77.1294 109.332ZM81.0903 116.973H82.0161V106.531H81.0903V116.973ZM94.8542 107.094H87.7761V107.855H93.9402V107.867C93.946 108.676 93.946 109.613 93.653 110.926H86.5691V111.688H96.1081V110.926H94.5788C94.8542 109.625 94.8542 108.676 94.8542 107.867V107.094ZM87.7409 116.809H94.9011V113.129H87.7409V116.809ZM88.655 116.059V113.855H93.987V116.059H88.655ZM100.371 109.027V108.688H102.726V107.938H100.394V106.602H99.4686V107.938H97.1131V108.688H99.4686V109.027C99.4627 110.498 98.3963 111.793 96.8553 112.309L97.3123 113.023C98.537 112.596 99.4862 111.705 99.9373 110.557C100.406 111.629 101.361 112.455 102.562 112.848L103.019 112.109C101.473 111.623 100.377 110.416 100.371 109.027ZM98.7655 116.727H105.75V115.953H99.6913V113.621H98.7655V116.727ZM102.363 110.516H104.531V114.324H105.457V106.543H104.531V109.754H102.363V110.516ZM115.31 107.211H108.267V107.973H114.395V108.125C114.395 109.098 114.395 110.188 114.079 111.688H107.071V112.449H111.337V116.973H112.263V112.449H116.563V111.688H115.011C115.31 110.193 115.31 109.109 115.31 108.125V107.211ZM121.655 107.152H120.741V111.992H125.464V109.988H127.925V112.613H128.851V106.531H127.925V109.215H125.464V107.152H124.562V108.793H121.655V107.152ZM121.655 111.23V109.531H124.562V111.23H121.655ZM121.702 116.211L122.042 116.926C123.566 116.662 124.954 115.93 125.54 114.875C126.132 115.924 127.515 116.68 129.05 116.926L129.402 116.211C127.702 115.965 126.167 115.01 126.044 113.914H128.991V113.152H122.113V113.914H125.054C124.919 115.039 123.39 115.971 121.702 116.211ZM138.879 106.941H135.34V107.703H137.977C137.965 108.283 137.924 109.109 137.684 110.258L138.575 110.375C138.879 108.998 138.879 107.955 138.879 107.352V106.941ZM130.477 111.77H139.957V111.008H135.879V109.203H134.965V111.008H130.477V111.77ZM131.285 116.188L131.614 116.891C133.155 116.662 134.584 115.941 135.2 114.922C135.815 115.947 137.256 116.662 138.797 116.891L139.137 116.188C137.42 115.971 135.797 115.045 135.668 113.949H138.703V113.211H135.657V112.133H134.743V113.211H131.696V113.949H134.731C134.596 115.045 132.979 115.971 131.285 116.188ZM131.297 107.703H133.571C133.559 108.271 133.483 109.08 133.09 110.223L133.993 110.375C134.467 108.975 134.467 107.914 134.473 107.328V106.941H131.297V107.703ZM150.255 114.887H145.908V112.918H149.294V112.156H142.826V110.457H149.048V107.305H141.888V108.066H148.146V109.707H141.912V112.918H145.005V114.887H140.716V115.66H150.255V114.887ZM154.234 116H159.742V115.062H155.699V114.992L157.644 112.988C159.144 111.441 159.584 110.703 159.59 109.754C159.584 108.436 158.494 107.398 156.953 107.398C155.418 107.398 154.257 108.406 154.269 109.906H155.265C155.271 108.957 155.904 108.318 156.918 108.312C157.873 108.318 158.599 108.881 158.605 109.754C158.599 110.539 158.119 111.113 157.117 112.18L154.222 115.227L154.234 116ZM164.087 116.117C165.78 116.117 167.046 115.086 167.04 113.691C167.046 112.613 166.378 111.822 165.27 111.652V111.594C166.161 111.342 166.723 110.639 166.712 109.672C166.723 108.459 165.739 107.398 164.122 107.398C162.616 107.398 161.362 108.301 161.309 109.648H162.329C162.376 108.816 163.202 108.318 164.11 108.312C165.077 108.318 165.698 108.881 165.692 109.73C165.698 110.604 164.977 111.184 163.946 111.184H163.255V112.109H163.946C165.264 112.115 166.003 112.766 166.009 113.691C166.003 114.576 165.194 115.18 164.075 115.18C163.061 115.18 162.259 114.676 162.2 113.867H161.134C161.186 115.215 162.399 116.117 164.087 116.117ZM168.232 114.266H172.346V116H173.353V114.266H174.537V113.34H173.353V107.516H172.053L168.232 113.398V114.266ZM169.369 113.34V113.27L172.24 108.852H172.346V113.34H169.369ZM176.761 115.215H175.624L174.98 118.402H175.847L176.761 115.215ZM184.267 107.516H183.2L181.091 108.922V109.988L183.154 108.617H183.2V116H184.267V107.516ZM189.186 116.117C191.067 116.117 192.151 114.535 192.151 111.758C192.151 109.004 191.049 107.398 189.186 107.398C187.317 107.398 186.215 109.004 186.221 111.758C186.215 114.535 187.305 116.117 189.186 116.117ZM187.241 111.758C187.246 109.561 187.967 108.318 189.186 108.312C190.405 108.318 191.125 109.561 191.12 111.758C191.125 113.955 190.411 115.18 189.186 115.18C187.955 115.18 187.246 113.955 187.241 111.758ZM202.554 111.828H193.062V112.59H202.554V111.828ZM193.613 110.434L193.906 111.148C195.628 110.967 197.169 110.346 197.808 109.297C198.441 110.346 199.988 110.967 201.71 111.148L201.992 110.434C200.046 110.252 198.388 109.461 198.312 108.301H201.593V107.551H198.253V106.508H197.351V107.551H194.046V108.301H197.298C197.216 109.461 195.564 110.252 193.613 110.434ZM194.21 115.203C194.205 116.322 195.541 116.926 197.808 116.926C200.064 116.926 201.382 116.322 201.394 115.203C201.382 114.084 200.064 113.48 197.808 113.48C195.541 113.48 194.205 114.084 194.21 115.203ZM195.148 115.203C195.136 114.547 196.121 114.178 197.808 114.172C199.478 114.178 200.462 114.547 200.468 115.203C200.462 115.859 199.478 116.223 197.808 116.211C196.121 116.223 195.136 115.859 195.148 115.203ZM209.58 107.516H208.513L206.404 108.922V109.988L208.467 108.617H208.513V116H209.58V107.516ZM214.499 116.117C216.38 116.117 217.464 114.535 217.464 111.758C217.464 109.004 216.362 107.398 214.499 107.398C212.63 107.398 211.528 109.004 211.534 111.758C211.528 114.535 212.618 116.117 214.499 116.117ZM212.554 111.758C212.559 109.561 213.28 108.318 214.499 108.312C215.718 108.318 216.438 109.561 216.432 111.758C216.438 113.955 215.724 115.18 214.499 115.18C213.268 115.18 212.559 113.955 212.554 111.758ZM221.527 116.117C223.408 116.117 224.492 114.535 224.492 111.758C224.492 109.004 223.391 107.398 221.527 107.398C219.658 107.398 218.557 109.004 218.562 111.758C218.557 114.535 219.646 116.117 221.527 116.117ZM219.582 111.758C219.588 109.561 220.309 108.318 221.527 108.312C222.746 108.318 223.467 109.561 223.461 111.758C223.467 113.955 222.752 115.18 221.527 115.18C220.297 115.18 219.588 113.955 219.582 111.758ZM225.778 116H231.286V115.062H227.243V114.992L229.189 112.988C230.689 111.441 231.128 110.703 231.134 109.754C231.128 108.436 230.038 107.398 228.497 107.398C226.962 107.398 225.802 108.406 225.814 109.906H226.81C226.816 108.957 227.448 108.318 228.462 108.312C229.417 108.318 230.144 108.881 230.15 109.754C230.144 110.539 229.663 111.113 228.661 112.18L225.767 115.227L225.778 116ZM241.326 108.078H237.518V106.707H236.615V108.078H232.795V108.84H241.326V108.078ZM232.326 115.73H241.865V114.969H237.518V113.504C239.358 113.404 240.5 112.684 240.494 111.512C240.5 110.275 239.17 109.543 237.072 109.555C234.946 109.543 233.639 110.275 233.651 111.512C233.639 112.684 234.758 113.404 236.615 113.504V114.969H232.326V115.73ZM234.576 111.512C234.565 110.738 235.52 110.281 237.072 110.281C238.608 110.281 239.563 110.738 239.557 111.512C239.563 112.303 238.608 112.76 237.072 112.766C235.52 112.76 234.565 112.303 234.576 111.512ZM33.0664 129.766C33.0781 131.98 33.6758 133.82 34.7539 135.391H35.6445C34.8535 134.225 34.1152 131.857 34.1094 129.766C34.1152 127.68 34.8535 125.307 35.6445 124.152H34.7539C33.6758 125.717 33.0781 127.557 33.0664 129.766ZM44.4542 123.531H43.5402V133.949H44.4542V128.547H46.1417V127.773H44.4542V123.531ZM36.462 131.242L36.9777 131.969C40.3702 130.293 41.753 127.604 41.7589 124.656H36.9425V125.43H40.8273C40.6163 127.896 39.1515 129.906 36.462 131.242ZM50.1467 125.5V124.176H49.2444V125.465C49.2385 127.082 48.1955 128.494 46.6077 129.051L47.1116 129.789C48.342 129.314 49.2854 128.359 49.7248 127.117C50.1877 128.219 51.1077 129.098 52.2913 129.531L52.76 128.793C51.2248 128.26 50.1409 126.936 50.1467 125.5ZM48.2834 133.727H55.2678V132.953H49.2209V130.492H48.2834V133.727ZM53.8733 131.23H54.7873V127.516H56.3577V126.73H54.7873V123.531H53.8733V131.23ZM66.3978 128.688H62.0853V127.469H65.2845V126.719H59.0033V124.762H65.2142V124.023H58.1009V127.469H61.1947V128.688H56.8939V129.426H66.3978V128.688ZM58.0423 132.062C58.0365 133.264 59.39 133.938 61.64 133.949C63.8724 133.938 65.2142 133.264 65.2259 132.062C65.2142 130.873 63.8724 130.193 61.64 130.188C59.39 130.193 58.0365 130.873 58.0423 132.062ZM58.9798 132.062C58.9681 131.342 59.9701 130.914 61.64 130.914C63.2923 130.914 64.2943 131.342 64.3002 132.062C64.2943 132.795 63.2923 133.217 61.64 133.211C59.9701 133.217 58.9681 132.795 58.9798 132.062ZM68.8559 132.215H67.7192L67.0747 135.402H67.9419L68.8559 132.215ZM81.9167 123.531H81.0261V133.949H81.9167V123.531ZM73.1159 128.031C73.1218 130.246 74.0007 131.658 75.3542 131.652C76.6374 131.658 77.5105 130.387 77.5984 128.359H78.9402V133.422H79.8191V123.754H78.9402V127.598H77.5925C77.4753 125.635 76.6198 124.416 75.3542 124.41C74.0007 124.416 73.1218 125.816 73.1159 128.031ZM73.9831 128.031C73.9714 126.338 74.5105 125.277 75.3542 125.277C76.2038 125.277 76.7429 126.338 76.737 128.031C76.7429 129.719 76.2038 130.785 75.3542 130.773C74.5105 130.785 73.9714 129.719 73.9831 128.031ZM91.828 123.531H90.9022V133.973H91.828V123.531ZM83.6248 127.973C83.6307 130.193 84.7323 131.6 86.285 131.594C87.8319 131.6 88.951 130.193 88.9452 127.973C88.951 125.758 87.8319 124.346 86.285 124.34C84.7323 124.346 83.6307 125.758 83.6248 127.973ZM84.5155 127.973C84.5155 126.279 85.242 125.166 86.285 125.16C87.3338 125.166 88.0545 126.279 88.0545 127.973C88.0545 129.666 87.3338 130.779 86.285 130.773C85.242 130.779 84.5155 129.666 84.5155 127.973ZM98.6806 125.066V124.27H97.7197V125.066C97.7138 126.859 95.6923 128.436 93.8877 128.781L94.3095 129.555C95.8857 129.186 97.5322 128.072 98.2119 126.543C98.8857 128.072 100.538 129.191 102.114 129.555L102.536 128.781C100.726 128.441 98.6865 126.854 98.6806 125.066ZM93.4892 132.531H103.028V131.77H93.4892V132.531ZM111.803 123.531H110.889V133.949H111.803V128.594H113.549V127.832H111.803V123.531ZM103.682 125.969H109.881V125.207H107.279V123.66H106.365V125.207H103.682V125.969ZM104.279 129.227C104.274 130.639 105.352 131.617 106.834 131.617C108.305 131.617 109.377 130.639 109.389 129.227C109.377 127.82 108.305 126.836 106.834 126.836C105.352 126.836 104.274 127.82 104.279 129.227ZM105.158 129.227C105.152 128.283 105.861 127.604 106.834 127.609C107.795 127.604 108.498 128.283 108.51 129.227C108.498 130.176 107.795 130.844 106.834 130.832C105.861 130.844 105.152 130.176 105.158 129.227ZM122.581 123.531H121.655V133.973H122.581V123.531ZM114.378 127.973C114.384 130.193 115.486 131.6 117.038 131.594C118.585 131.6 119.704 130.193 119.698 127.973C119.704 125.758 118.585 124.346 117.038 124.34C115.486 124.346 114.384 125.758 114.378 127.973ZM115.269 127.973C115.269 126.279 115.995 125.166 117.038 125.16C118.087 125.166 118.808 126.279 118.808 127.973C118.808 129.666 118.087 130.779 117.038 130.773C115.995 130.779 115.269 129.666 115.269 127.973ZM126.739 124.352C125.344 124.357 124.354 125.383 124.36 126.883C124.354 128.365 125.344 129.402 126.739 129.391C127.987 129.402 128.93 128.553 129.1 127.293H130.231V131.031H131.098V123.742H130.231V126.52H129.106C128.953 125.219 128.004 124.357 126.739 124.352ZM125.192 126.883C125.18 125.875 125.842 125.143 126.739 125.148C127.623 125.143 128.285 125.875 128.297 126.883C128.285 127.896 127.623 128.605 126.739 128.605C125.842 128.605 125.18 127.896 125.192 126.883ZM126.258 133.727H133.407V132.953H127.172V130.328H126.258V133.727ZM132.211 131.336H133.09V123.531H132.211V131.336ZM142.908 128.547H136.626V125.266H142.802V124.504H135.712V129.309H142.908V128.547ZM134.494 132.531H144.033V131.758H134.494V132.531ZM150.088 124.48H145.202V131.441H146.022C147.997 131.436 149.362 131.377 150.991 131.102L150.885 130.34C149.327 130.609 148.008 130.68 146.128 130.68V128.16H149.854V127.41H146.128V125.254H150.088V124.48ZM151.893 133.949H152.807V128.512H154.553V127.727H152.807V123.531H151.893V133.949ZM163.621 123.543H162.683V130.668H160.281V131.371H162.683V133.961H163.621V123.543ZM154.949 129.027L155.078 129.812C155.916 129.812 156.871 129.801 157.867 129.766V133.633H158.793V129.719C159.83 129.654 160.902 129.555 161.933 129.379L161.875 128.688C159.578 129.016 156.935 129.021 154.949 129.027ZM155.746 126.109C155.74 127.346 156.818 128.143 158.382 128.148C159.929 128.143 161.013 127.346 161.007 126.109C161.013 124.885 159.929 124.059 158.382 124.059C156.818 124.059 155.74 124.885 155.746 126.109ZM156.613 126.109C156.607 125.324 157.334 124.779 158.382 124.773C159.408 124.779 160.134 125.324 160.14 126.109C160.134 126.9 159.408 127.439 158.382 127.434C157.334 127.439 156.607 126.9 156.613 126.109ZM171.467 133.117C173.254 133.135 174.42 131.857 174.42 130.258C174.42 128.617 173.16 127.445 171.654 127.445C170.74 127.445 169.961 127.861 169.475 128.57H169.369C169.363 126.525 170.201 125.336 171.596 125.336C172.539 125.336 173.113 125.898 173.307 126.648H174.35C174.133 125.318 173.09 124.398 171.596 124.398C169.603 124.398 168.373 126.08 168.373 129.086C168.373 132.227 169.996 133.1 171.467 133.117ZM169.51 130.281C169.521 129.279 170.377 128.377 171.49 128.371C172.598 128.377 173.394 129.227 173.4 130.27C173.394 131.324 172.562 132.186 171.467 132.191C170.33 132.186 169.516 131.277 169.51 130.281ZM178.847 126.93V126.098H181.214V125.348H178.87V123.73H177.944V125.348H175.565V126.098H177.956V126.93C177.95 128.723 176.814 130.504 175.284 131.219L175.812 131.934C176.995 131.359 177.962 130.152 178.419 128.699C178.853 130.041 179.761 131.184 180.909 131.746L181.448 131.031C179.937 130.305 178.853 128.6 178.847 126.93ZM182.526 133.949H183.44V128.594H185.187V127.809H183.44V123.531H182.526V133.949ZM188.231 129.766C188.219 127.557 187.621 125.717 186.543 124.152H185.652C186.444 125.307 187.182 127.68 187.188 129.766C187.182 131.857 186.444 134.225 185.652 135.391H186.543C187.621 133.82 188.219 131.98 188.231 129.766ZM32.4688 142.453H35.1406V150H36.207V142.453H38.8672V141.516H32.4688V142.453ZM40.3409 150.07C40.757 150.064 41.0968 149.725 41.0909 149.309C41.0968 148.898 40.757 148.559 40.3409 148.559C39.9308 148.559 39.5792 148.898 39.5909 149.309C39.5792 149.725 39.9308 150.064 40.3409 150.07ZM48.1869 150.117C50.0677 150.117 51.1517 148.535 51.1517 145.758C51.1517 143.004 50.0502 141.398 48.1869 141.398C46.3177 141.398 45.2162 143.004 45.222 145.758C45.2162 148.535 46.306 150.117 48.1869 150.117ZM46.2416 145.758C46.2474 143.561 46.9681 142.318 48.1869 142.312C49.4056 142.318 50.1263 143.561 50.1205 145.758C50.1263 147.955 49.4115 149.18 48.1869 149.18C46.9564 149.18 46.2474 147.955 46.2416 145.758ZM52.438 150H57.9458V149.062H53.9028V148.992L55.8481 146.988C57.3481 145.441 57.7876 144.703 57.7934 143.754C57.7876 142.436 56.6977 141.398 55.1567 141.398C53.6216 141.398 52.4614 142.406 52.4731 143.906H53.4692C53.4751 142.957 54.1079 142.318 55.1216 142.312C56.0766 142.318 56.8032 142.881 56.8091 143.754C56.8032 144.539 56.3227 145.113 55.3208 146.18L52.4263 149.227L52.438 150ZM63.0172 145.301H59.3023V146.227H63.0172V145.301ZM67.2683 150.117C69.0378 150.117 70.28 149.127 70.2917 147.75C70.28 146.654 69.5183 145.746 68.5573 145.594V145.547C69.3894 145.354 69.9519 144.574 69.9636 143.648C69.9519 142.354 68.8152 141.398 67.2683 141.398C65.7155 141.398 64.5788 142.354 64.5847 143.648C64.5788 144.574 65.1355 145.354 65.9792 145.547V145.594C65.0124 145.746 64.2507 146.654 64.2566 147.75C64.2507 149.127 65.4812 150.117 67.2683 150.117ZM65.3113 147.691C65.2937 146.754 66.1316 146.062 67.2683 146.062C68.4109 146.062 69.237 146.754 69.237 147.691C69.237 148.582 68.4812 149.186 67.2683 149.191C66.0495 149.186 65.2937 148.582 65.3113 147.691ZM65.6042 143.73C65.6101 142.881 66.2605 142.307 67.2683 142.312C68.2585 142.307 68.9323 142.881 68.9323 143.73C68.9323 144.586 68.2351 145.166 67.2683 145.172C66.2956 145.166 65.6101 144.586 65.6042 143.73ZM74.3553 150.117C76.0487 150.117 77.2791 148.934 77.285 147.293C77.2791 145.641 76.0897 144.445 74.4725 144.445C73.8748 144.445 73.3065 144.645 72.9256 144.938H72.8436L73.16 142.453H76.8748V141.516H72.2811L71.6834 146.156H72.703C73.0135 145.605 73.5702 145.383 74.285 145.395C75.4276 145.4 76.2537 146.215 76.2537 147.316C76.2537 148.383 75.4569 149.186 74.3553 149.191C73.4354 149.186 72.6971 148.623 72.6209 147.867H71.6014C71.6659 149.174 72.826 150.117 74.3553 150.117ZM78.6298 150H84.1377V149.062H80.0947V148.992L82.04 146.988C83.54 145.441 83.9795 144.703 83.9853 143.754C83.9795 142.436 82.8896 141.398 81.3486 141.398C79.8134 141.398 78.6533 142.406 78.665 143.906H79.6611C79.667 142.957 80.2998 142.318 81.3134 142.312C82.2685 142.318 82.9951 142.881 83.0009 143.754C82.9951 144.539 82.5146 145.113 81.5127 146.18L78.6181 149.227L78.6298 150ZM89.2091 145.301H85.4942V146.227H89.2091V145.301ZM90.6242 150H91.7258L95.6047 142.5V141.516H90.0266V142.453H94.5148V142.512L90.6242 150ZM99.5628 141.398C97.7581 141.381 96.598 142.664 96.598 144.246C96.598 145.881 97.8577 147.047 99.3753 147.047C100.278 147.047 101.057 146.625 101.543 145.922H101.66C101.649 147.984 100.805 149.18 99.4222 149.18C98.4788 149.18 97.8988 148.617 97.7113 147.855H96.6683C96.8792 149.203 97.928 150.117 99.4222 150.117C101.409 150.117 102.645 148.436 102.645 145.418C102.645 142.295 101.022 141.416 99.5628 141.398ZM97.6292 144.234C97.6175 143.186 98.4554 142.324 99.5628 142.324C100.682 142.324 101.496 143.238 101.496 144.211C101.496 145.207 100.635 146.121 99.5277 146.121C98.4202 146.121 97.6234 145.283 97.6292 144.234ZM106.814 150.117C108.583 150.117 109.826 149.127 109.837 147.75C109.826 146.654 109.064 145.746 108.103 145.594V145.547C108.935 145.354 109.497 144.574 109.509 143.648C109.497 142.354 108.361 141.398 106.814 141.398C105.261 141.398 104.124 142.354 104.13 143.648C104.124 144.574 104.681 145.354 105.525 145.547V145.594C104.558 145.746 103.796 146.654 103.802 147.75C103.796 149.127 105.027 150.117 106.814 150.117ZM104.857 147.691C104.839 146.754 105.677 146.062 106.814 146.062C107.956 146.062 108.783 146.754 108.783 147.691C108.783 148.582 108.027 149.186 106.814 149.191C105.595 149.186 104.839 148.582 104.857 147.691ZM105.15 143.73C105.156 142.881 105.806 142.307 106.814 142.312C107.804 142.307 108.478 142.881 108.478 143.73C108.478 144.586 107.781 145.166 106.814 145.172C105.841 145.166 105.156 144.586 105.15 143.73ZM113.913 150.117C115.794 150.117 116.878 148.535 116.878 145.758C116.878 143.004 115.776 141.398 113.913 141.398C112.044 141.398 110.942 143.004 110.948 145.758C110.942 148.535 112.032 150.117 113.913 150.117ZM111.967 145.758C111.973 143.561 112.694 142.318 113.913 142.312C115.131 142.318 115.852 143.561 115.846 145.758C115.852 147.955 115.137 149.18 113.913 149.18C112.682 149.18 111.973 147.955 111.967 145.758ZM32.9375 167H33.9922V163.215H37.6602V162.289H33.9922V159.453H38.0469V158.516H32.9375V167ZM39.6847 167.07C40.1007 167.064 40.4405 166.725 40.4347 166.309C40.4405 165.898 40.1007 165.559 39.6847 165.559C39.2745 165.559 38.923 165.898 38.9347 166.309C38.923 166.725 39.2745 167.064 39.6847 167.07ZM47.5306 167.117C49.4115 167.117 50.4955 165.535 50.4955 162.758C50.4955 160.004 49.3939 158.398 47.5306 158.398C45.6615 158.398 44.5599 160.004 44.5658 162.758C44.5599 165.535 45.6498 167.117 47.5306 167.117ZM45.5853 162.758C45.5912 160.561 46.3119 159.318 47.5306 159.312C48.7494 159.318 49.4701 160.561 49.4642 162.758C49.4701 164.955 48.7552 166.18 47.5306 166.18C46.3002 166.18 45.5912 164.955 45.5853 162.758ZM51.7817 167H57.2895V166.062H53.2466V165.992L55.1919 163.988C56.6919 162.441 57.1313 161.703 57.1372 160.754C57.1313 159.436 56.0415 158.398 54.5005 158.398C52.9653 158.398 51.8052 159.406 51.8169 160.906H52.813C52.8188 159.957 53.4516 159.318 54.4653 159.312C55.4204 159.318 56.147 159.881 56.1528 160.754C56.147 161.539 55.6665 162.113 54.6645 163.18L51.77 166.227L51.7817 167ZM62.3609 162.301H58.6461V163.227H62.3609V162.301ZM66.612 167.117C68.3816 167.117 69.6238 166.127 69.6355 164.75C69.6238 163.654 68.862 162.746 67.9011 162.594V162.547C68.7331 162.354 69.2956 161.574 69.3073 160.648C69.2956 159.354 68.1589 158.398 66.612 158.398C65.0593 158.398 63.9226 159.354 63.9284 160.648C63.9226 161.574 64.4792 162.354 65.323 162.547V162.594C64.3562 162.746 63.5945 163.654 63.6003 164.75C63.5945 166.127 64.8249 167.117 66.612 167.117ZM64.655 164.691C64.6374 163.754 65.4753 163.062 66.612 163.062C67.7546 163.062 68.5808 163.754 68.5808 164.691C68.5808 165.582 67.8249 166.186 66.612 166.191C65.3933 166.186 64.6374 165.582 64.655 164.691ZM64.948 160.73C64.9538 159.881 65.6042 159.307 66.612 159.312C67.6023 159.307 68.2761 159.881 68.2761 160.73C68.2761 161.586 67.5788 162.166 66.612 162.172C65.6394 162.166 64.9538 161.586 64.948 160.73ZM73.6991 167.117C75.3924 167.117 76.6229 165.934 76.6287 164.293C76.6229 162.641 75.4334 161.445 73.8162 161.445C73.2186 161.445 72.6502 161.645 72.2694 161.938H72.1873L72.5037 159.453H76.2186V158.516H71.6248L71.0272 163.156H72.0467C72.3573 162.605 72.9139 162.383 73.6287 162.395C74.7713 162.4 75.5975 163.215 75.5975 164.316C75.5975 165.383 74.8006 166.186 73.6991 166.191C72.7791 166.186 72.0409 165.623 71.9647 164.867H70.9452C71.0096 166.174 72.1698 167.117 73.6991 167.117ZM77.9736 167H83.4814V166.062H79.4384V165.992L81.3838 163.988C82.8838 162.441 83.3232 161.703 83.3291 160.754C83.3232 159.436 82.2334 158.398 80.6923 158.398C79.1572 158.398 77.997 159.406 78.0088 160.906H79.0048C79.0107 159.957 79.6435 159.318 80.6572 159.312C81.6123 159.318 82.3388 159.881 82.3447 160.754C82.3388 161.539 81.8584 162.113 80.8564 163.18L77.9619 166.227L77.9736 167ZM88.5528 162.301H84.838V163.227H88.5528V162.301ZM89.968 167H91.0695L94.9484 159.5V158.516H89.3703V159.453H93.8586V159.512L89.968 167ZM98.9066 158.398C97.1019 158.381 95.9417 159.664 95.9417 161.246C95.9417 162.881 97.2015 164.047 98.7191 164.047C99.6214 164.047 100.401 163.625 100.887 162.922H101.004C100.993 164.984 100.149 166.18 98.7659 166.18C97.8226 166.18 97.2425 165.617 97.055 164.855H96.012C96.223 166.203 97.2718 167.117 98.7659 167.117C100.752 167.117 101.989 165.436 101.989 162.418C101.989 159.295 100.366 158.416 98.9066 158.398ZM96.973 161.234C96.9613 160.186 97.7991 159.324 98.9066 159.324C100.026 159.324 100.84 160.238 100.84 161.211C100.84 162.207 99.9788 163.121 98.8714 163.121C97.764 163.121 96.9671 162.283 96.973 161.234ZM106.158 167.117C107.927 167.117 109.169 166.127 109.181 164.75C109.169 163.654 108.408 162.746 107.447 162.594V162.547C108.279 162.354 108.841 161.574 108.853 160.648C108.841 159.354 107.705 158.398 106.158 158.398C104.605 158.398 103.468 159.354 103.474 160.648C103.468 161.574 104.025 162.354 104.869 162.547V162.594C103.902 162.746 103.14 163.654 103.146 164.75C103.14 166.127 104.371 167.117 106.158 167.117ZM104.201 164.691C104.183 163.754 105.021 163.062 106.158 163.062C107.3 163.062 108.126 163.754 108.126 164.691C108.126 165.582 107.371 166.186 106.158 166.191C104.939 166.186 104.183 165.582 104.201 164.691ZM104.494 160.73C104.499 159.881 105.15 159.307 106.158 159.312C107.148 159.307 107.822 159.881 107.822 160.73C107.822 161.586 107.124 162.166 106.158 162.172C105.185 162.166 104.499 161.586 104.494 160.73ZM113.409 167.117C115.102 167.117 116.368 166.086 116.362 164.691C116.368 163.613 115.7 162.822 114.592 162.652V162.594C115.483 162.342 116.045 161.639 116.034 160.672C116.045 159.459 115.061 158.398 113.444 158.398C111.938 158.398 110.684 159.301 110.631 160.648H111.651C111.698 159.816 112.524 159.318 113.432 159.312C114.399 159.318 115.02 159.881 115.014 160.73C115.02 161.604 114.299 162.184 113.268 162.184H112.577V163.109H113.268C114.586 163.115 115.325 163.766 115.331 164.691C115.325 165.576 114.516 166.18 113.397 166.18C112.383 166.18 111.581 165.676 111.522 164.867H110.456C110.508 166.215 111.721 167.117 113.409 167.117ZM32.9375 184H38.1406V183.062H33.9922V180.215H37.8125V179.289H33.9922V176.453H38.082V175.516H32.9375V184ZM40.212 184.07C40.628 184.064 40.9679 183.725 40.962 183.309C40.9679 182.898 40.628 182.559 40.212 182.559C39.8019 182.559 39.4503 182.898 39.462 183.309C39.4503 183.725 39.8019 184.064 40.212 184.07ZM48.8314 179.289H49.8158C49.6869 178.258 48.8607 177.555 47.5423 177.555C46.142 177.555 45.1869 178.34 45.1869 179.43C45.1869 180.279 45.7787 180.883 46.8861 181.141L47.847 181.363C48.5677 181.533 48.89 181.826 48.89 182.277C48.89 182.875 48.3216 183.256 47.4134 183.25C46.6107 183.256 46.1595 182.957 46.0423 182.336H44.9877C45.1576 183.496 46.0072 184.135 47.4369 184.129C49.0306 184.135 49.9271 183.32 49.933 182.219C49.9271 181.334 49.3705 180.766 48.2338 180.496L47.2845 180.262C46.5404 180.08 46.2005 179.793 46.1947 179.371C46.2005 178.838 46.7572 178.416 47.5423 178.41C48.2865 178.416 48.6908 178.762 48.8314 179.289ZM50.8208 182.195C50.8208 183.438 51.7817 184.146 52.9888 184.152C54.0962 184.146 54.6763 183.561 54.8872 183.133H54.9341V184H55.9302V179.805C55.936 177.801 54.3716 177.555 53.5395 177.555C52.1333 177.555 51.1372 178.264 51.0083 179.289H52.063C52.2036 178.803 52.6899 178.434 53.4927 178.434C54.4536 178.434 54.9341 178.902 54.9341 179.711V180.227C54.647 180.232 53.6216 180.291 53.2114 180.32C52.1098 180.402 50.8208 180.736 50.8208 182.195ZM51.8286 182.242C51.8345 181.545 52.4145 181.223 53.3286 181.164C53.6333 181.146 54.6352 181.07 54.9341 181.053V181.691C54.9341 182.494 54.3013 183.256 53.1645 183.25C52.3911 183.256 51.8345 182.916 51.8286 182.242ZM58.4352 175.516H57.4273V184H58.4352V175.516ZM62.5925 184.129C63.905 184.135 64.8484 183.479 65.1472 182.512H64.0691C63.8347 182.904 63.3542 183.238 62.5925 183.238C61.4616 183.238 60.6765 182.5 60.6238 181.152H65.2409V180.73C65.2468 178.375 63.8347 177.555 62.4988 177.555C60.7702 177.555 59.6159 178.914 59.6159 180.871C59.6159 182.822 60.7527 184.135 62.5925 184.129ZM60.6296 180.297C60.6999 179.312 61.3972 178.445 62.4988 178.445C63.5476 178.445 64.2155 179.236 64.2214 180.297H60.6296ZM69.9725 179.289H70.9569C70.828 178.258 70.0018 177.555 68.6834 177.555C67.283 177.555 66.328 178.34 66.328 179.43C66.328 180.279 66.9198 180.883 68.0272 181.141L68.9881 181.363C69.7088 181.533 70.0311 181.826 70.0311 182.277C70.0311 182.875 69.4627 183.256 68.5545 183.25C67.7518 183.256 67.3006 182.957 67.1834 182.336H66.1287C66.2987 183.496 67.1483 184.135 68.578 184.129C70.1717 184.135 71.0682 183.32 71.0741 182.219C71.0682 181.334 70.5116 180.766 69.3748 180.496L68.4256 180.262C67.6815 180.08 67.3416 179.793 67.3358 179.371C67.3416 178.838 67.8983 178.416 68.6834 178.41C69.4276 178.416 69.8319 178.762 69.9725 179.289ZM76.4619 182.887C77.3759 182.881 77.7334 182.236 77.8681 181.973H77.9443C77.9912 182.518 78.5478 182.934 79.2861 182.934C80.4755 182.934 81.413 181.873 81.4072 180.051C81.4189 177.525 79.5322 175.621 76.7314 175.621C74.0009 175.621 72.0556 177.643 72.0673 180.414C72.0615 183.385 73.8193 185.219 76.6845 185.219C77.458 185.219 78.1435 185.113 78.7588 184.949V184.152C78.0439 184.346 77.5048 184.398 76.6845 184.41C74.2119 184.434 72.9111 182.799 72.9111 180.414C72.917 178.234 74.4111 176.441 76.7314 176.43C78.9755 176.436 80.5752 177.877 80.5634 180.086C80.5576 181.305 80.0713 182.154 79.3447 182.148C78.9638 182.154 78.7763 181.926 78.7588 181.469V178.047H77.8681V178.762H77.8095C77.663 178.498 77.3173 177.959 76.4736 177.953C75.3017 177.959 74.4345 178.902 74.4345 180.414C74.4345 181.938 75.2841 182.881 76.4619 182.887ZM75.3486 180.402C75.3427 179.506 75.7939 178.814 76.6142 178.809C77.458 178.814 77.874 179.453 77.8798 180.402C77.874 181.375 77.4521 182.025 76.6142 182.031C75.7998 182.025 75.3427 181.316 75.3486 180.402ZM83.713 175.516H82.7052V184H83.713V175.516ZM84.8937 182.195C84.8937 183.438 85.8547 184.146 87.0617 184.152C88.1691 184.146 88.7492 183.561 88.9602 183.133H89.007V184H90.0031V179.805C90.009 177.801 88.4445 177.555 87.6125 177.555C86.2062 177.555 85.2102 178.264 85.0812 179.289H86.1359C86.2766 178.803 86.7629 178.434 87.5656 178.434C88.5266 178.434 89.007 178.902 89.007 179.711V180.227C88.7199 180.232 87.6945 180.291 87.2844 180.32C86.1828 180.402 84.8937 180.736 84.8937 182.195ZM85.9016 182.242C85.9074 181.545 86.4875 181.223 87.4016 181.164C87.7062 181.146 88.7082 181.07 89.007 181.053V181.691C89.007 182.494 88.3742 183.256 87.2375 183.25C86.4641 183.256 85.9074 182.916 85.9016 182.242ZM91.5003 184H92.5081V180.027C92.5081 179.102 93.1761 178.457 93.9378 178.457C94.6702 178.457 95.1859 178.938 95.18 179.652V184H96.1995V179.863C96.2054 179.055 96.7093 178.457 97.5941 178.457C98.2913 178.457 98.8773 178.82 98.8831 179.758V184H99.8909V179.746C99.8909 178.246 99.0765 177.555 97.9456 177.555C97.0316 177.555 96.3577 177.977 96.0355 178.633H95.9652C95.6663 177.953 95.098 177.555 94.2659 177.555C93.4339 177.555 92.8187 177.953 92.555 178.633H92.473V177.637H91.5003V184ZM104.06 184.129C105.372 184.135 106.316 183.479 106.615 182.512H105.537C105.302 182.904 104.822 183.238 104.06 183.238C102.929 183.238 102.144 182.5 102.091 181.152H106.708V180.73C106.714 178.375 105.302 177.555 103.966 177.555C102.238 177.555 101.083 178.914 101.083 180.871C101.083 182.822 102.22 184.135 104.06 184.129ZM102.097 180.297C102.167 179.312 102.865 178.445 103.966 178.445C105.015 178.445 105.683 179.236 105.689 180.297H102.097ZM110.303 184.129C111.516 184.135 111.932 183.379 112.155 183.027H112.26V184H113.245V175.516H112.225V178.645H112.155C111.938 178.305 111.551 177.555 110.315 177.555C108.715 177.555 107.596 178.82 107.596 180.836C107.596 182.857 108.715 184.135 110.303 184.129ZM108.616 180.812C108.616 179.482 109.219 178.457 110.444 178.457C111.628 178.457 112.254 179.4 112.26 180.812C112.254 182.242 111.61 183.227 110.444 183.227C109.237 183.227 108.616 182.166 108.616 180.812ZM114.871 184H115.879V177.637H114.871V184ZM114.672 175.914C114.666 176.283 114.988 176.582 115.375 176.582C115.761 176.582 116.084 176.283 116.09 175.914C116.084 175.539 115.761 175.24 115.375 175.246C114.988 175.24 114.666 175.539 114.672 175.914ZM120.141 177.637H118.805V176.113H117.786V177.637H116.825V178.48H117.786V182.43C117.792 183.555 118.682 184.082 119.532 184.082C119.831 184.082 120.077 184.059 120.235 184.035V183.098C120.089 183.104 119.819 183.121 119.637 183.121C119.21 183.121 118.8 182.986 118.805 182.172V178.48H120.141V177.637ZM123.924 184.129C125.236 184.135 126.18 183.479 126.478 182.512H125.4C125.166 182.904 124.685 183.238 123.924 183.238C122.793 183.238 122.008 182.5 121.955 181.152H126.572V180.73C126.578 178.375 125.166 177.555 123.83 177.555C122.101 177.555 120.947 178.914 120.947 180.871C120.947 182.822 122.084 184.135 123.924 184.129ZM121.961 180.297C122.031 179.312 122.728 178.445 123.83 178.445C124.879 178.445 125.547 179.236 125.553 180.297H121.961ZM130.366 184.129C131.778 184.135 132.716 183.262 132.874 182.125H131.866C131.69 182.822 131.116 183.227 130.366 183.227C129.212 183.227 128.474 182.283 128.468 180.812C128.474 179.383 129.23 178.445 130.366 178.445C131.216 178.445 131.72 178.979 131.866 179.559H132.874C132.716 178.357 131.696 177.555 130.343 177.555C128.614 177.555 127.46 178.914 127.46 180.848C127.46 182.758 128.562 184.135 130.366 184.129ZM135.004 180.18C135.004 179.078 135.707 178.457 136.656 178.457C137.57 178.457 138.121 179.025 138.121 180.027V184H139.129V179.957C139.129 178.322 138.262 177.555 136.961 177.555C135.953 177.555 135.385 177.977 135.086 178.633H135.004V175.516H133.996V184H135.004V180.18ZM141.341 184.07C141.757 184.064 142.097 183.725 142.091 183.309C142.097 182.898 141.757 182.559 141.341 182.559C140.931 182.559 140.579 182.898 140.591 183.309C140.579 183.725 140.931 184.064 141.341 184.07ZM146.155 184.129C147.567 184.135 148.504 183.262 148.662 182.125H147.655C147.479 182.822 146.905 183.227 146.155 183.227C145 183.227 144.262 182.283 144.256 180.812C144.262 179.383 145.018 178.445 146.155 178.445C147.004 178.445 147.508 178.979 147.655 179.559H148.662C148.504 178.357 147.485 177.555 146.131 177.555C144.403 177.555 143.248 178.914 143.248 180.848C143.248 182.758 144.35 184.135 146.155 184.129ZM152.386 184.129C154.115 184.135 155.275 182.822 155.269 180.848C155.275 178.861 154.115 177.555 152.386 177.555C150.652 177.555 149.48 178.861 149.48 180.848C149.48 182.822 150.652 184.135 152.386 184.129ZM150.488 180.848C150.494 179.582 151.091 178.445 152.386 178.445C153.669 178.445 154.261 179.582 154.261 180.848C154.261 182.119 153.669 183.238 152.386 183.238C151.091 183.238 150.494 182.119 150.488 180.848ZM156.473 184H157.481V180.027C157.481 179.102 158.149 178.457 158.911 178.457C159.643 178.457 160.159 178.938 160.153 179.652V184H161.173V179.863C161.178 179.055 161.682 178.457 162.567 178.457C163.264 178.457 163.85 178.82 163.856 179.758V184H164.864V179.746C164.864 178.246 164.049 177.555 162.919 177.555C162.005 177.555 161.331 177.977 161.008 178.633H160.938C160.639 177.953 160.071 177.555 159.239 177.555C158.407 177.555 157.792 177.953 157.528 178.633H157.446V177.637H156.473V184Z" fill="#7E818D"/>
<rect x="182" y="28" width="114" height="21" rx="4" fill="#F2F3F7"/>
<path d="M198.648 33.4492H197.359V44.0547H198.648V38.6055H200.277V37.5156H198.648V33.4492ZM190.773 35.4297H194.348V37.3281H190.797V41.5586H191.664C193.592 41.5586 195.033 41.4883 196.668 41.1953L196.551 40.1406C195.074 40.3984 193.768 40.4688 192.086 40.4805V38.3711H195.648V34.375H190.773V35.4297ZM204.851 34.5977H200.691V41.3125H204.851V38.4062H206.081V43.5273H207.324V33.6367H206.081V37.3516H204.851V34.5977ZM201.91 40.2812V35.6289H203.632V40.2812H201.91ZM208.249 44.043H209.503V33.4492H208.249V44.043ZM219.186 33.4492H217.874V44.0547H219.186V33.4492ZM211.03 41.5H211.932C214.171 41.5 215.536 41.4414 217.053 41.1602L216.925 40.082C215.512 40.334 214.288 40.3867 212.343 40.3984V35.4766H216.139V34.4102H211.03V41.5ZM224.861 34.1758H220.83V39.5078H221.533C223.168 39.5137 224.176 39.4785 225.4 39.2734L225.26 38.2305C224.229 38.418 223.35 38.4707 222.084 38.4766V37.3047H224.463V36.3086H222.084V35.2188H224.861V34.1758ZM222.154 41.5234H228.143V44.043H229.443V40.4805H222.154V41.5234ZM224.92 37.2344H226.115V39.9648H227.358V33.6719H226.115V36.1797H224.92V37.2344ZM228.201 40.0352H229.443V33.4609H228.201V40.0352ZM241.18 33.4492H239.88V44.043H241.18V38.582H242.809V37.4805H241.18V33.4492ZM233.259 41.5586H238.345V34.3164H237.044V36.9648H234.548V34.3164H233.259V41.5586ZM234.548 40.4922V37.9844H237.044V40.4922H234.548ZM252.574 41.7344H248.356V40.0117H251.672V38.9453H245.344V37.5742H251.426V34.1758H244.02V35.2305H250.137V36.543H244.043V40.0117H247.067V41.7344H242.895V42.8125H252.574V41.7344ZM261.203 33.4492H259.902V44.0195H261.203V38.6758H262.773V37.5859H261.203V33.4492ZM252.847 41.125L253.585 42.1328C257.107 40.3984 258.396 37.6621 258.402 34.5508H253.421V35.6289H257.078C256.82 38.043 255.425 39.8359 252.847 41.125ZM271.765 33.4492H270.452V44.043H271.765V33.4492ZM262.987 41.125L263.667 42.168C267.376 40.4043 268.6 37.7266 268.6 34.5742H263.526V35.6055H267.276C267.042 38.0137 265.765 39.8066 262.987 41.125Z" fill="#7E818D"/>
<path fill-rule="evenodd" clip-rule="evenodd" d="M285.438 35.792C285.438 35.4128 285.131 35.1053 284.752 35.1045H284.75H284.75H281.501C281.121 35.1045 280.813 35.4123 280.813 35.792C280.813 36.1717 281.121 36.4795 281.501 36.4795L283.066 36.4795C282.136 37.3989 281.089 38.4482 280.173 39.37C279.5 40.0477 278.897 40.6576 278.462 41.0981C278.245 41.3183 278.069 41.4962 277.948 41.6191L277.809 41.7606L277.773 41.7974L277.763 41.8068L277.761 41.8091L277.76 41.8097L277.76 41.8099L278.25 42.292L277.76 41.81C277.494 42.0807 277.498 42.516 277.768 42.7822C278.039 43.0484 278.474 43.0448 278.741 42.774L278.25 42.292L278.741 42.774L278.741 42.7738L278.741 42.7733L278.744 42.7709L278.753 42.7616L278.789 42.725L278.928 42.584C279.048 42.4615 279.223 42.2839 279.441 42.064C279.875 41.6243 280.477 41.0155 281.149 40.339C282.074 39.4069 283.131 38.3487 284.063 37.428V39.042C284.063 39.4217 284.37 39.7295 284.75 39.7295C285.13 39.7295 285.438 39.4217 285.438 39.042V35.8181C285.438 35.8095 285.438 35.8007 285.438 35.792Z" fill="#7E818D"/>
<defs>
<filter id="filter0_bd_1264_20588" x="-4" y="-8" width="336" height="232" filterUnits="userSpaceOnUse" color-interpolation-filters="sRGB">
<feFlood flood-opacity="0" result="BackgroundImageFix"/>
<feGaussianBlur in="BackgroundImage" stdDeviation="10"/>
<feComposite in2="SourceAlpha" operator="in" result="effect1_backgroundBlur_1264_20588"/>
<feColorMatrix in="SourceAlpha" type="matrix" values="0 0 0 0 0 0 0 0 0 0 0 0 0 0 0 0 0 0 127 0" result="hardAlpha"/>
<feOffset dy="4"/>
<feGaussianBlur stdDeviation="8"/>
<feComposite in2="hardAlpha" operator="out"/>
<feColorMatrix type="matrix" values="0 0 0 0 0 0 0 0 0 0 0 0 0 0 0 0 0 0 0.1 0"/>
<feBlend mode="normal" in2="effect1_backgroundBlur_1264_20588" result="effect2_dropShadow_1264_20588"/>
<feBlend mode="normal" in="SourceGraphic" in2="effect2_dropShadow_1264_20588" result="shape"/>
</filter>
</defs>
</svg>
