<svg width="170" height="106" viewBox="0 0 170 106" fill="none" xmlns="http://www.w3.org/2000/svg">
<g filter="url(#filter0_d_1017_13631)">
<rect x="21" y="15" width="128" height="64" rx="4" fill="white" fill-opacity="0.6" shape-rendering="crispEdges"/>
<path d="M50.3712 47.5625V52.875H55.1439V49.1562H59.3864V52.875H64.1591V43.8438M64.1591 43.8438H48.7741C48.5011 43.8438 48.2948 43.5966 48.3436 43.3281L49.1802 38.7187C49.2557 38.3026 49.6181 38 50.0411 38H63.9589C64.3819 38 64.7443 38.3026 64.8198 38.7187L65.6564 43.3281C65.7051 43.5966 65.4988 43.8438 65.2259 43.8438H64.1591Z" stroke="#55576F" stroke-width="1.7" stroke-linecap="square"/>
<path d="M79.3281 48.6914H77.1133V51.9434H73.4746V53.7539H88.1172V51.9434H84.4609V48.6914H82.2285V51.9434H79.3281V48.6914ZM73.8262 46.6875L74.7227 48.5508C77.5352 48.0762 79.6357 46.6084 80.6992 44.6748C81.7451 46.6084 83.8457 48.0586 86.6934 48.5508L87.5898 46.6875C83.9512 46.1514 81.8857 43.8398 81.8945 41.6602V40.5H79.5039V41.6602C79.4863 43.8135 77.4297 46.1338 73.8262 46.6875ZM98.238 40.834H89.5368V42.627H90.8376V46.7666C90.2311 46.7754 89.6511 46.7754 89.1149 46.7754L89.361 48.5859C92.0153 48.5859 95.7595 48.5244 99.0114 47.9531L98.8532 46.3008C98.2292 46.3799 97.5788 46.4502 96.9196 46.5029V42.627H98.238V40.834ZM91.3122 52.5762C91.3122 54.5098 93.3952 55.626 96.8141 55.6172C100.242 55.626 102.342 54.5098 102.351 52.5762C102.342 50.6602 100.242 49.5791 96.8141 49.5879C93.3952 49.5791 91.3122 50.6602 91.3122 52.5762ZM92.9821 46.7227V42.627H94.7575V46.6523C94.1598 46.6787 93.5622 46.7051 92.9821 46.7227ZM93.5446 52.5762C93.5446 51.7236 94.6696 51.2842 96.8141 51.293C98.9675 51.2842 100.092 51.7236 100.101 52.5762C100.092 53.4639 98.9675 53.9121 96.8141 53.9121C94.6696 53.9121 93.5446 53.4639 93.5446 52.5762ZM99.9958 49.2891H102.246V39.6387H99.9958V49.2891ZM118.818 46.1602H112.595V45.123H116.972V40.0781H106.038V45.123H110.38V46.1602H104.228V47.9707H118.818V46.1602ZM105.915 50.4492H114.827V51.2754H105.933V55.5117H117.464V53.8242H108.13V52.8574H117.042V48.7617H105.915V50.4492ZM108.236 43.4004V41.8184H114.74V43.4004H108.236Z" fill="#55576F"/>
<rect x="21" y="15" width="128" height="64" rx="4" stroke="white" shape-rendering="crispEdges"/>
</g>
<defs>
<filter id="filter0_d_1017_13631" x="0.5" y="0.5" width="169" height="105" filterUnits="userSpaceOnUse" color-interpolation-filters="sRGB">
<feFlood flood-opacity="0" result="BackgroundImageFix"/>
<feColorMatrix in="SourceAlpha" type="matrix" values="0 0 0 0 0 0 0 0 0 0 0 0 0 0 0 0 0 0 127 0" result="hardAlpha"/>
<feOffset dy="6"/>
<feGaussianBlur stdDeviation="10"/>
<feComposite in2="hardAlpha" operator="out"/>
<feColorMatrix type="matrix" values="0 0 0 0 0.496974 0 0 0 0 0.180243 0 0 0 0 0.745833 0 0 0 0.05 0"/>
<feBlend mode="normal" in2="BackgroundImageFix" result="effect1_dropShadow_1017_13631"/>
<feBlend mode="normal" in="SourceGraphic" in2="effect1_dropShadow_1017_13631" result="shape"/>
</filter>
</defs>
</svg>
