<?xml version="1.0" encoding="UTF-8"?><svg id="_라셀로고_w" xmlns="http://www.w3.org/2000/svg" viewBox="0 0 841.89 595.28"><defs><style>.cls-1{fill:#fff;}</style></defs><g><path class="cls-1" d="M645.19,163.4c3.21-3.21,3.21-5.87,0-9.09-3.21-3.21-5.87-3.21-9.09,0-20.46,20.46-40.92,40.92-61.39,61.39,3.03,3.03,6.06,6.06,9.09,9.09,20.46-20.46,40.92-40.92,61.39-61.39Z"/><path class="cls-1" d="M524.89,174.95c-30.03-30.03-78.72-30.03-108.75,0-13.58,13.58-27.16,27.16-40.74,40.75,3.03,3.03,6.06,6.06,9.09,9.09,13.58-13.58,27.16-27.16,40.74-40.74,25.01-25.01,65.57-25.01,90.58,0,40.1,40.1,80.2,80.2,120.3,120.3,3.21,3.21,5.87,3.21,9.09,0,3.21-3.21,3.21-5.87,0-9.09l-120.31-120.31Z"/><path class="cls-1" d="M556.55,233.87c-13.58,13.58-27.16,27.16-40.74,40.75-25.01,25.01-65.56,25.01-90.58,0-33.22-33.22-66.44-66.44-99.66-99.66-48.44-48.44-131.27-14.13-131.27,54.38v119.07c0,4.54,1.88,6.43,6.43,6.43s6.43-1.88,6.43-6.43v-76.51c26.88,40.46,84.08,46.16,118.42,11.82,13.58-13.58,27.16-27.16,40.74-40.74-3.03-3.03-6.06-6.06-9.09-9.09-13.58,13.58-27.16,27.16-40.74,40.75-40.35,40.35-109.34,11.77-109.34-45.29s68.99-85.64,109.34-45.29c33.22,33.22,66.44,66.44,99.66,99.66,30.03,30.03,78.72,30.03,108.75,0,13.58-13.58,27.16-27.16,40.74-40.74-3.03-3.03-6.06-6.06-9.09-9.09Z"/></g><g><polygon class="cls-1" points="617.71 404.83 612.02 404.83 612.02 434.16 647.08 434.16 647.08 428.47 617.71 428.47 617.71 404.83"/><path class="cls-1" d="M224.59,404.83h-30.3v29.33h5.69v-12.65h24.61c4.61,0,8.34-3.73,8.34-8.34s-3.73-8.34-8.34-8.34Zm0,10.98h-24.61v-5.29h24.61c1.87,0,2.64,.77,2.64,2.64s-.77,2.64-2.64,2.64Z"/><path class="cls-1" d="M417.51,404.83l-21.8,29.33h7.1l8.78-11.82h18.23l8.75,11.82h7.09l-21.72-29.33h-6.43Zm-1.69,11.82l4.9-6.59,4.88,6.59h-9.78Z"/><path class="cls-1" d="M366.35,413.17c0-4.6-3.73-8.34-8.34-8.34h-30.3v29.33h5.69v-12.65h14.05l-.06-.06c3.78,4.24,7.55,8.48,11.33,12.71h7.63c-3.76-4.22-7.51-8.43-11.27-12.65h2.93c4.6,0,8.34-3.73,8.34-8.34Zm-32.94,2.64v-5.29h24.61c1.87,0,2.64,.77,2.64,2.64s-.77,2.64-2.64,2.64h-24.61Z"/><path class="cls-1" d="M294.07,422.73c0,.38-.03,.76-.1,1.13-.05,.27-.12,.54-.23,.79-.09,.21-.2,.42-.34,.61-.15,.21-.34,.41-.53,.58-.27,.24-.56,.44-.87,.63-.28,.17-.57,.32-.86,.45-.54,.26-1.11,.47-1.68,.66-1.46,.48-2.98,.78-4.51,.98-2,.26-4.01,.36-6.03,.36-1.08,0-2.15-.03-3.23-.09-.95-.06-1.9-.14-2.85-.27-.82-.11-1.64-.25-2.46-.42-.69-.15-1.38-.34-2.06-.56-.56-.19-1.12-.4-1.66-.65-.29-.14-.57-.28-.85-.45-.3-.18-.59-.39-.85-.62-.19-.17-.37-.37-.52-.58-.13-.19-.25-.39-.34-.61-.11-.26-.18-.52-.23-.8-.07-.37-.1-.75-.1-1.13v-17.9h-5.69v17.9c0,4.07,1.82,7.06,5.45,8.99,3.63,1.93,8.76,2.89,15.37,2.89s11.67-.96,15.33-2.89c3.66-1.93,5.49-4.92,5.49-8.99v-17.9h-5.69v17.9Z"/><polygon class="cls-1" points="554.74 422.46 582.65 422.46 582.65 416.77 554.74 416.77 554.74 411.03 584.35 411.03 584.35 405.34 549.05 405.34 549.05 434.67 584.92 434.67 584.92 428.97 554.74 428.97 554.74 422.46"/><polygon class="cls-1" points="518.01 405.34 508.63 405.34 494.55 416.1 480.47 405.34 471.09 405.34 489.34 419.29 469.22 434.67 478.6 434.67 494.55 422.47 510.5 434.67 519.88 434.67 499.76 419.29 518.01 405.34"/></g></svg>