<svg width="13" height="13" viewBox="0 0 13 13" fill="none" xmlns="http://www.w3.org/2000/svg">
<path fill-rule="evenodd" clip-rule="evenodd" d="M10.4387 3.7915C10.4387 3.41228 10.1316 3.10477 9.75258 3.10401L9.75198 3.10401C9.75154 3.104 9.75111 3.104 9.75067 3.104L9.74977 3.104L6.50116 3.104C6.12146 3.104 5.81366 3.41181 5.81366 3.7915C5.81366 4.1712 6.12146 4.479 6.50116 4.479L8.0668 4.479C7.13655 5.39845 6.08924 6.44774 5.17363 7.3695C4.50044 8.04721 3.89732 8.6571 3.4625 9.09758C3.24507 9.31782 3.0697 9.49573 2.94866 9.61861L2.80937 9.76007L2.77316 9.79687L2.76392 9.80627L2.76157 9.80866L2.76098 9.80926L2.76083 9.80941L3.25098 10.2915L2.76077 9.80947C2.49455 10.0802 2.49821 10.5155 2.76894 10.7817C3.03968 11.0479 3.47496 11.0443 3.74118 10.7735L3.25098 10.2915L3.74122 10.7735L3.74136 10.7734L3.74193 10.7728L3.74423 10.7704L3.75337 10.7611L3.78938 10.7245L3.92823 10.5835C4.04896 10.461 4.22398 10.2834 4.44102 10.0636C4.87512 9.62382 5.4772 9.01497 6.14915 8.33851C7.07499 7.40646 8.13133 6.34821 9.06317 5.42749V7.0415C9.06317 7.4212 9.37097 7.729 9.75067 7.729C10.1304 7.729 10.4382 7.4212 10.4382 7.0415V3.81766C10.4385 3.80898 10.4387 3.80026 10.4387 3.7915Z" fill="#7E818D"/>
</svg>
