<svg width="16" height="16" viewBox="0 0 16 16" fill="none" xmlns="http://www.w3.org/2000/svg">
<path d="M7.99967 4.66683C8.36634 4.66683 8.66634 4.96683 8.66634 5.3335L8.66634 8.00016C8.66634 8.36683 8.36634 8.66683 7.99967 8.66683C7.63301 8.66683 7.33301 8.36683 7.33301 8.00016L7.33301 5.3335C7.33301 4.96683 7.63301 4.66683 7.99967 4.66683ZM7.99301 1.3335C4.31301 1.3335 1.33301 4.32016 1.33301 8.00016C1.33301 11.6802 4.31301 14.6668 7.99301 14.6668C11.6797 14.6668 14.6663 11.6802 14.6663 8.00017C14.6663 4.32017 11.6797 1.3335 7.99301 1.3335ZM7.99967 13.3335C5.05301 13.3335 2.66634 10.9468 2.66634 8.00016C2.66634 5.0535 5.05301 2.66683 7.99967 2.66683C10.9463 2.66683 13.333 5.0535 13.333 8.00017C13.333 10.9468 10.9463 13.3335 7.99967 13.3335ZM8.66634 10.6668C8.66634 11.035 8.36786 11.3335 7.99967 11.3335C7.63148 11.3335 7.33301 11.035 7.33301 10.6668C7.33301 10.2986 7.63148 10.0002 7.99967 10.0002C8.36786 10.0002 8.66634 10.2986 8.66634 10.6668Z" fill="#DD5C54"/>
</svg>
