<svg width="64" height="64" viewBox="0 0 64 64" fill="none" xmlns="http://www.w3.org/2000/svg">
<rect width="64" height="64" rx="8" fill="#55576F"/>
<path d="M55.7501 23.2272C56.0818 22.8844 56.0818 22.5999 55.7501 22.2571C55.4183 21.9143 55.143 21.9143 54.8112 22.2571C52.6975 24.4411 52.4907 24.7137 50.377 26.8977C50.6896 27.2207 51.0032 27.5437 51.3158 27.8678C53.4296 25.6837 53.6363 25.4112 55.7501 23.2272Z" fill="#F6F6FA" stroke="#F6F6FA" stroke-width="0.7"/>
<path d="M43.3244 24.4627C40.2224 21.2575 35.1922 21.2575 32.0902 24.4627C30.6874 25.9121 31.6479 24.9243 30.2441 26.3748C30.5568 26.6978 30.8704 27.0208 31.183 27.3449C32.5858 25.8955 31.6253 26.8832 33.029 25.4328C35.6127 22.7632 39.8019 22.7632 42.3855 25.4328C46.5283 29.7133 50.6709 33.9938 54.8127 38.2732C55.1445 38.616 55.4198 38.616 55.7515 38.2732C56.0833 37.9304 56.0833 37.646 55.7515 37.3031L43.3244 24.4627Z" fill="#F6F6FA" stroke="#F6F6FA" stroke-width="0.7"/>
<path d="M44.9845 32.4421C43.5817 33.8915 43.787 33.6399 42.3833 35.0893C39.7996 37.7589 35.6105 37.7589 33.0268 35.0893C29.595 31.5434 26.1632 27.9975 22.7314 24.4516C17.7275 19.2813 8 22.9428 8 30.2555V46.3142C8 46.7987 8.19463 46.9998 8.66356 46.9998C9.1325 46.9998 9.32713 46.7987 9.32713 46.3142V34.7986C12.1044 39.1166 19.1827 39.7262 22.7314 36.0594C24.1342 34.61 23.8381 34.8626 25.2419 33.4122C24.9293 33.0891 24.6156 32.7651 24.303 32.4421C22.9003 33.8915 23.1963 33.6399 21.7926 35.0893C17.6246 39.3958 9.32713 36.3459 9.32713 30.2555C9.32713 24.1651 17.6246 21.1152 21.7926 25.4217C25.2244 28.9676 28.6561 32.5135 32.0879 36.0594C35.1899 39.2646 40.2201 39.2646 43.3221 36.0594C44.7249 34.61 44.5196 34.8626 45.9234 33.4122C45.6108 33.0891 45.2971 32.7651 44.9845 32.4421Z" fill="#F6F6FA" stroke="#F6F6FA" stroke-width="0.7"/>
</svg>
