<svg width="114" height="21" viewBox="0 0 114 21" fill="none" xmlns="http://www.w3.org/2000/svg">
<rect width="114" height="21" rx="4" fill="#F2F3F7"/>
<path d="M16.6484 5.44922H15.3594V16.0547H16.6484V10.6055H18.2773V9.51562H16.6484V5.44922ZM8.77344 7.42969H12.3477V9.32812H8.79688V13.5586H9.66406C11.5918 13.5586 13.0332 13.4883 14.668 13.1953L14.5508 12.1406C13.0742 12.3984 11.7676 12.4688 10.0859 12.4805V10.3711H13.6484V6.375H8.77344V7.42969ZM22.8509 6.59766H18.6908V13.3125H22.8509V10.4062H24.0814V15.5273H25.3236V5.63672H24.0814V9.35156H22.8509V6.59766ZM19.9095 12.2812V7.62891H21.6322V12.2812H19.9095ZM26.2494 16.043H27.5033V5.44922H26.2494V16.043ZM37.1863 5.44922H35.8738V16.0547H37.1863V5.44922ZM29.03 13.5H29.9323C32.1706 13.5 33.5359 13.4414 35.0534 13.1602L34.9245 12.082C33.5124 12.334 32.2878 12.3867 30.3425 12.3984V7.47656H34.1394V6.41016H29.03V13.5ZM42.8614 6.17578H38.8302V11.5078H39.5333C41.168 11.5137 42.1759 11.4785 43.4005 11.2734L43.2598 10.2305C42.2286 10.418 41.3497 10.4707 40.0841 10.4766V9.30469H42.463V8.30859H40.0841V7.21875H42.8614V6.17578ZM40.1544 13.5234H46.1427V16.043H47.4434V12.4805H40.1544V13.5234ZM42.92 9.23438H44.1153V11.9648H45.3575V5.67188H44.1153V8.17969H42.92V9.23438ZM46.2013 12.0352H47.4434V5.46094H46.2013V12.0352ZM59.1805 5.44922H57.8797V16.043H59.1805V10.582H60.8094V9.48047H59.1805V5.44922ZM51.2586 13.5586H56.3445V6.31641H55.0438V8.96484H52.5477V6.31641H51.2586V13.5586ZM52.5477 12.4922V9.98438H55.0438V12.4922H52.5477ZM70.5744 13.7344H66.3556V12.0117H69.672V10.9453H63.3439V9.57422H69.4259V6.17578H62.0197V7.23047H68.1369V8.54297H62.0431V12.0117H65.0666V13.7344H60.8947V14.8125H70.5744V13.7344ZM79.2027 5.44922H77.9019V16.0195H79.2027V10.6758H80.773V9.58594H79.2027V5.44922ZM70.8472 13.125L71.5855 14.1328C75.107 12.3984 76.396 9.66211 76.4019 6.55078H71.4214V7.62891H75.0777C74.8198 10.043 73.4253 11.8359 70.8472 13.125ZM89.7645 5.44922H88.452V16.043H89.7645V5.44922ZM80.9872 13.125L81.6669 14.168C85.3759 12.4043 86.6005 9.72656 86.6005 6.57422H81.5263V7.60547H85.2763C85.0419 10.0137 83.7645 11.8066 80.9872 13.125Z" fill="#7E818D"/>
</svg>
