<svg width="425" height="265" viewBox="0 0 425 265" fill="none" xmlns="http://www.w3.org/2000/svg">
<path d="M422.741 10.7783C425.75 7.7699 425.75 5.27697 422.741 2.25922C419.732 -0.749166 417.238 -0.749166 414.219 2.25922C395.037 21.4341 375.855 40.6091 356.664 59.7933C359.505 62.633 362.345 65.4727 365.186 68.3124C384.368 49.1375 403.55 29.9626 422.741 10.7783Z" fill="url(#paint0_linear_69_17618)"/>
<path d="M309.946 21.603C281.792 -6.54084 236.144 -6.54084 207.99 21.603C195.258 34.33 182.527 47.0571 169.795 59.7935C172.636 62.6332 175.476 65.4729 178.317 68.3126C191.049 55.5855 203.78 42.8585 216.512 30.1314C239.959 6.69229 277.986 6.69229 301.433 30.1314C339.028 67.7128 376.623 105.294 414.218 142.875C417.227 145.884 419.721 145.884 422.74 142.875C425.749 139.867 425.749 137.374 422.74 134.356L309.946 21.603Z" fill="url(#paint1_linear_69_17618)"/>
<path d="M339.629 76.8224C326.897 89.5495 314.165 102.277 301.434 115.013C277.986 138.452 239.97 138.452 216.513 115.013C185.368 83.8795 154.223 52.746 123.079 21.6125C77.6554 -23.7944 0 8.36064 0 72.5676V184.159C0 188.414 1.76255 190.185 6.0283 190.185C10.2941 190.185 12.0566 188.423 12.0566 184.159V112.445C37.2573 150.364 90.8839 155.706 123.079 123.523C135.81 110.796 148.542 98.0685 161.273 85.3415C158.433 82.5018 155.592 79.6621 152.751 76.8224C140.02 89.5495 127.288 102.277 114.556 115.013C76.7273 152.829 12.0472 126.044 12.0472 72.5676C12.0472 19.0915 76.7273 -7.69344 114.556 30.1222C145.701 61.2557 176.846 92.3891 207.99 123.523C236.144 151.666 281.793 151.666 309.947 123.523C322.678 110.796 335.41 98.0685 348.141 85.3415C345.301 82.5018 342.46 79.6621 339.619 76.8224H339.629Z" fill="url(#paint2_linear_69_17618)"/>
<rect x="147" y="173" width="276" height="37" rx="4" fill="#F8F9FA"/>
<path d="M182.998 198.789H183.941V194.66H184.01C184.304 195.303 184.926 196.157 186.279 196.15C188.098 196.157 189.342 194.619 189.342 192.309C189.342 189.998 188.098 188.474 186.266 188.467C184.892 188.474 184.311 189.321 184.01 189.957H183.9V188.576H182.998V198.789ZM183.928 192.295C183.921 190.538 184.714 189.314 186.156 189.314C187.626 189.314 188.405 190.606 188.412 192.295C188.405 193.99 187.612 195.31 186.156 195.316C184.734 195.31 183.921 194.052 183.928 192.295ZM195.546 193.129C195.552 194.482 194.527 195.2 193.549 195.193C192.504 195.2 191.765 194.448 191.772 193.307V188.576H190.829V193.375C190.829 195.146 191.847 196.096 193.276 196.096C194.37 196.096 195.135 195.521 195.477 194.77H195.546V196H196.475V188.576H195.546V193.129ZM198.331 196H199.275V191.229C199.268 190.155 200.102 189.362 201.243 189.369C201.483 189.362 201.715 189.403 201.79 189.424V188.48C201.674 188.474 201.462 188.467 201.312 188.467C200.396 188.467 199.596 188.966 199.302 189.725H199.234V188.576H198.331V196ZM205.656 196.15C207.153 196.157 208.206 195.344 208.541 194.318H207.543C207.276 194.79 206.675 195.316 205.656 195.316C204.18 195.316 203.223 194.25 203.182 192.568H208.691V192.131C208.684 189.608 207.133 188.474 205.519 188.467C203.585 188.474 202.245 190.08 202.252 192.336C202.245 194.592 203.558 196.157 205.656 196.15ZM203.188 191.762C203.27 190.429 204.193 189.308 205.533 189.314C206.832 189.308 207.734 190.374 207.734 191.762H203.188Z" fill="#7E818D"/>
<path d="M238.115 188.576H236.475V187.701C236.475 186.895 236.857 186.505 237.678 186.512C237.828 186.505 238.033 186.519 238.252 186.553V185.719C238.047 185.671 237.739 185.644 237.486 185.637C236.27 185.644 235.538 186.348 235.545 187.51V188.576H234.396V189.369H235.545V196H236.475V189.369H238.115V188.576ZM239.424 196H240.368V191.229C240.361 190.155 241.195 189.362 242.337 189.369C242.576 189.362 242.808 189.403 242.883 189.424V188.48C242.767 188.474 242.555 188.467 242.405 188.467C241.489 188.467 240.689 188.966 240.395 189.725H240.327V188.576H239.424V196ZM243.591 193.922C243.584 195.351 244.685 196.171 246.038 196.164C247.283 196.171 248.021 195.487 248.322 194.852H248.376V196H249.306V190.982C249.306 188.945 247.734 188.474 246.626 188.467C245.081 188.474 243.953 189.246 243.796 190.422H244.767C244.945 189.745 245.601 189.294 246.572 189.301C247.741 189.294 248.383 189.902 248.376 190.9V191.598C248.021 191.611 246.824 191.693 246.325 191.721C244.808 191.844 243.584 192.411 243.591 193.922ZM244.521 193.963C244.521 193.108 245.15 192.603 246.462 192.514C246.831 192.493 248.007 192.404 248.376 192.37V193.17C248.383 194.353 247.535 195.33 246.175 195.33C245.225 195.33 244.521 194.838 244.521 193.963ZM254.115 196.15C255.681 196.157 256.774 195.166 256.973 193.826H256.029C255.831 194.742 255.079 195.31 254.115 195.316C252.68 195.31 251.736 194.079 251.736 192.295C251.736 190.518 252.707 189.308 254.115 189.314C255.154 189.308 255.845 189.984 256.029 190.791H256.959C256.767 189.41 255.605 188.474 254.101 188.467C252.133 188.474 250.8 190.08 250.807 192.322C250.8 194.537 252.099 196.157 254.115 196.15ZM261.385 188.576H259.827V186.799H258.883V188.576H257.776V189.369H258.883V194.25C258.883 195.48 259.861 196.109 260.825 196.109C261.139 196.109 261.372 196.082 261.522 196.068V195.193L260.907 195.221C260.346 195.214 259.82 194.954 259.827 194.018V189.369H261.385V188.576ZM262.927 196H263.857V188.576H262.927V196ZM262.722 186.662C262.722 187.024 263.029 187.312 263.405 187.305C263.775 187.312 264.082 187.024 264.089 186.662C264.082 186.3 263.775 186.013 263.405 186.006C263.029 186.013 262.722 186.3 262.722 186.662ZM268.652 196.15C270.594 196.157 271.94 194.592 271.933 192.322C271.94 190.039 270.594 188.474 268.652 188.467C266.704 188.474 265.35 190.039 265.357 192.322C265.35 194.592 266.704 196.157 268.652 196.15ZM266.287 192.322C266.287 190.695 267.128 189.308 268.652 189.314C270.17 189.308 271.004 190.688 271.004 192.322C271.004 193.949 270.17 195.316 268.652 195.316C267.121 195.316 266.287 193.949 266.287 192.322ZM274.364 191.393C274.357 190.107 275.191 189.321 276.346 189.328C277.467 189.321 278.178 190.073 278.178 191.27V196H279.108V191.201C279.108 189.431 278.096 188.48 276.592 188.48C275.499 188.48 274.76 188.979 274.405 189.752H274.323V188.576H273.42V196H274.364V191.393ZM280.609 193.922C280.602 195.351 281.702 196.171 283.056 196.164C284.3 196.171 285.038 195.487 285.339 194.852H285.394V196H286.323V190.982C286.323 188.945 284.751 188.474 283.644 188.467C282.099 188.474 280.971 189.246 280.814 190.422H281.784C281.962 189.745 282.618 189.294 283.589 189.301C284.758 189.294 285.401 189.902 285.394 190.9V191.598C285.038 191.611 283.842 191.693 283.343 191.721C281.825 191.844 280.602 192.411 280.609 193.922ZM281.538 193.963C281.538 193.108 282.167 192.603 283.48 192.514C283.849 192.493 285.025 192.404 285.394 192.37V193.17C285.401 194.353 284.553 195.33 283.193 195.33C282.242 195.33 281.538 194.838 281.538 193.963ZM289.136 186.102H288.193V196H289.136V186.102Z" fill="#7E818D"/>
<path d="M328.012 196H329.516V192.527H331.539C333.836 192.527 334.971 191.14 334.971 189.314C334.971 187.482 333.843 186.102 331.539 186.102H328.012V196ZM329.516 191.242V187.387H331.389C332.845 187.394 333.453 188.193 333.453 189.314C333.453 190.429 332.845 191.249 331.389 191.242H329.516ZM342.774 186.102V192.486C342.774 193.826 341.851 194.79 340.354 194.797C338.85 194.79 337.914 193.826 337.921 192.486V186.102H336.417V192.609C336.41 194.688 337.968 196.164 340.354 196.164C342.719 196.164 344.285 194.688 344.278 192.609V186.102H342.774ZM346.161 196H347.665V192.268H349.689H349.784L351.794 196H353.503L351.316 192.001C352.519 191.543 353.12 190.538 353.12 189.205C353.12 187.38 351.992 186.102 349.689 186.102H346.161V196ZM347.665 190.969V187.387H349.538C350.994 187.394 351.603 188.091 351.603 189.205C351.603 190.319 350.994 190.962 349.538 190.969H347.665ZM355.496 196L356.398 193.389H360.254L361.156 196H362.756L359.187 186.102H357.451L353.896 196H355.496ZM356.829 192.131L358.285 187.906H358.353L359.816 192.131H356.829ZM364.926 186.102H363.163L366.307 191.051L363.149 196H364.899L367.278 192.186H367.36L369.725 196H371.489L368.372 191.051L371.461 186.102H369.725L367.36 189.957H367.278L364.926 186.102ZM372.648 196H378.909V194.701H374.152V191.68H378.527V190.395H374.152V187.4H378.855V186.102H372.648V196ZM380.56 196H386.535V194.701H382.064V186.102H380.56V196Z" fill="#55576F"/>
<path d="M218 192H226" stroke="#7E818D"/>
<path d="M222 188L222 196" stroke="#7E818D"/>
<path d="M314.54 187L318.985 191L314.54 195M319 191.007L299 191" stroke="#7E818D"/>
<defs>
<linearGradient id="paint0_linear_69_17618" x1="356.664" y1="34.1518" x2="425" y2="34.1518" gradientUnits="userSpaceOnUse">
<stop stop-color="#B39692"/>
<stop offset="0.01" stop-color="#AA8C89"/>
<stop offset="0.03" stop-color="#A58784"/>
<stop offset="0.13" stop-color="#C5A7A3"/>
<stop offset="0.18" stop-color="#D1B3AF"/>
<stop offset="0.25" stop-color="#E0C3BF"/>
<stop offset="0.33" stop-color="#F5D8D5"/>
<stop offset="0.4" stop-color="#F9E1DF"/>
<stop offset="0.48" stop-color="#FCE7E6"/>
<stop offset="0.56" stop-color="#F5D8D5"/>
<stop offset="0.76" stop-color="#C9ACA7"/>
<stop offset="0.83" stop-color="#D1B4B0"/>
<stop offset="0.87" stop-color="#E3C6C2"/>
<stop offset="0.9" stop-color="#D6B9B5"/>
<stop offset="0.95" stop-color="#B69995"/>
<stop offset="0.98" stop-color="#9D7F7C"/>
</linearGradient>
<linearGradient id="paint1_linear_69_17618" x1="169.795" y1="72.8111" x2="0.936834" y2="72.8111" gradientUnits="userSpaceOnUse">
<stop stop-color="#B39692"/>
<stop offset="0.01" stop-color="#AA8C89"/>
<stop offset="0.03" stop-color="#A58784"/>
<stop offset="0.13" stop-color="#C5A7A3"/>
<stop offset="0.18" stop-color="#D1B3AF"/>
<stop offset="0.25" stop-color="#E0C3BF"/>
<stop offset="0.33" stop-color="#F5D8D5"/>
<stop offset="0.4" stop-color="#F9E1DF"/>
<stop offset="0.48" stop-color="#FCE7E6"/>
<stop offset="0.56" stop-color="#F5D8D5"/>
<stop offset="0.76" stop-color="#C9ACA7"/>
<stop offset="0.83" stop-color="#D1B4B0"/>
<stop offset="0.87" stop-color="#E3C6C2"/>
<stop offset="0.9" stop-color="#D6B9B5"/>
<stop offset="0.95" stop-color="#B69995"/>
<stop offset="0.98" stop-color="#9D7F7C"/>
</linearGradient>
<linearGradient id="paint2_linear_69_17618" x1="0" y1="95.2663" x2="348.151" y2="95.2663" gradientUnits="userSpaceOnUse">
<stop stop-color="#B39692"/>
<stop offset="0.01" stop-color="#AA8C89"/>
<stop offset="0.03" stop-color="#A58784"/>
<stop offset="0.13" stop-color="#C5A7A3"/>
<stop offset="0.18" stop-color="#D1B3AF"/>
<stop offset="0.25" stop-color="#E0C3BF"/>
<stop offset="0.33" stop-color="#F5D8D5"/>
<stop offset="0.4" stop-color="#F9E1DF"/>
<stop offset="0.48" stop-color="#FCE7E6"/>
<stop offset="0.56" stop-color="#F5D8D5"/>
<stop offset="0.76" stop-color="#C9ACA7"/>
<stop offset="0.83" stop-color="#D1B4B0"/>
<stop offset="0.87" stop-color="#E3C6C2"/>
<stop offset="0.9" stop-color="#D6B9B5"/>
<stop offset="0.95" stop-color="#B69995"/>
<stop offset="0.98" stop-color="#9D7F7C"/>
</linearGradient>
</defs>
</svg>
