<svg width="62" height="28" viewBox="0 0 62 28" fill="none" xmlns="http://www.w3.org/2000/svg">
<g opacity="0.5">
<path d="M61.6697 1.58686C62.109 1.14358 62.109 0.775746 61.6697 0.332463C61.2305 -0.110821 60.866 -0.110821 60.4267 0.332463C57.6282 3.15654 54.8297 5.98062 52.0312 8.8047C52.4451 9.22238 52.8604 9.64007 53.2743 10.0591C56.0728 7.23502 58.8713 4.41094 61.6697 1.58686Z" fill="#55576F"/>
<path d="M45.2181 3.18564C41.1111 -0.958854 34.4514 -0.958854 30.3444 3.18564C28.4872 5.05983 26.63 6.93402 24.7715 8.80955C25.1854 9.22723 25.6006 9.64492 26.0145 10.0639C27.8717 8.18976 29.7289 6.31558 31.5875 4.44004C35.0081 0.98809 40.5544 0.98809 43.975 4.44004C49.4599 9.97502 54.9447 15.51 60.4282 21.0436C60.8675 21.4869 61.2319 21.4869 61.6712 21.0436C62.1105 20.6004 62.1105 20.2325 61.6712 19.7892L45.2181 3.18564Z" fill="#55576F"/>
<path d="M49.545 11.3061C47.6878 13.1803 45.8306 15.0559 43.9721 16.93C40.5514 20.382 35.0051 20.382 31.5845 16.93C27.0409 12.345 22.4974 7.75986 17.9539 3.17478C11.3288 -3.51086 0 1.22379 0 10.6796V27.1134C0 27.74 0.257685 28 0.878533 28C1.49938 28 1.75707 27.74 1.75707 27.1134V16.5541C5.43409 22.1376 13.2554 22.9258 17.9539 18.1844C19.8111 16.3103 21.6683 14.4361 23.5268 12.5605C23.1129 12.1428 22.6977 11.7238 22.2838 11.3061C20.4266 13.1803 18.5694 15.0559 16.7108 16.93C11.1926 22.4987 1.75707 18.555 1.75707 10.6796C1.75707 2.80425 11.1926 -1.13949 16.7108 4.42917C21.2544 9.01426 25.7979 13.5993 30.3414 18.1844C34.4484 22.3289 41.1081 22.3289 45.2151 18.1844C47.0723 16.3103 48.9295 14.4361 50.788 12.5605C50.3741 12.1428 49.9589 11.7238 49.545 11.3061Z" fill="#55576F"/>
</g>
</svg>
